<?xml version="1.0" encoding="utf-8"?>
<!-- Generator: Adobe Illustrator 23.0.0, SVG Export Plug-In . SVG Version: 6.00 Build 0)  -->
<svg version="1.1" id="Layer_1" xmlns="http://www.w3.org/2000/svg" xmlns:xlink="http://www.w3.org/1999/xlink" x="0px" y="0px"
	 width="34px" height="34px" viewBox="0 0 34 34" style="enable-background:new 0 0 34 34;" xml:space="preserve">
<style type="text/css">
	.st0{fill:#E82012;}
</style>
<g id="_001-survey" transform="translate(0.25 -21.083)">
	<g id="Group_770" transform="translate(0 21.333)">
		<g id="Group_769">
			<g>
				<circle id="Ellipse_19_1_" class="st0" cx="5.1" cy="6.3" r="0.6"/>
				<path class="st0" d="M5.1,7.2c-0.5,0-0.9-0.4-0.9-0.9s0.4-0.9,0.9-0.9s0.9,0.4,0.9,0.9S5.5,7.2,5.1,7.2z M5.1,5.9
					c-0.2,0-0.4,0.2-0.4,0.4s0.2,0.4,0.4,0.4s0.4-0.2,0.4-0.4S5.3,5.9,5.1,5.9z"/>
			</g>
			<g>
				<circle id="Ellipse_20_1_" class="st0" cx="7.5" cy="6.3" r="0.6"/>
				<path class="st0" d="M7.5,7.2C7,7.2,6.7,6.8,6.7,6.3S7,5.4,7.5,5.4s0.9,0.4,0.9,0.9S8,7.2,7.5,7.2z M7.5,5.9
					c-0.2,0-0.4,0.2-0.4,0.4s0.2,0.4,0.4,0.4s0.4-0.2,0.4-0.4S7.7,5.9,7.5,5.9z"/>
			</g>
			<g>
				<circle id="Ellipse_21_1_" class="st0" cx="10" cy="6.3" r="0.6"/>
				<path class="st0" d="M10,7.2c-0.5,0-0.9-0.4-0.9-0.9S9.5,5.4,10,5.4s0.9,0.4,0.9,0.9S10.5,7.2,10,7.2z M10,5.9
					c-0.2,0-0.4,0.2-0.4,0.4S9.8,6.7,10,6.7s0.4-0.2,0.4-0.4S10.2,5.9,10,5.9z"/>
			</g>
			<g>
				<path id="Path_1325_1_" class="st0" d="M8.8,15.5h13.5c0.3,0,0.6-0.3,0.6-0.6c0-0.3-0.3-0.6-0.6-0.6H8.8c-0.3,0-0.6,0.3-0.6,0.6
					C8.1,15.2,8.4,15.5,8.8,15.5z"/>
				<path class="st0" d="M22.3,15.8H8.8c-0.5,0-0.9-0.4-0.9-0.9c0-0.2,0.1-0.4,0.3-0.6C8.3,14.1,8.5,14,8.8,14h13.5
					c0.5,0,0.9,0.4,0.9,0.9c0,0.2-0.1,0.4-0.3,0.6S22.5,15.8,22.3,15.8z M8.8,15.3h13.5c0.1,0,0.2,0,0.3-0.1
					c0.1-0.1,0.1-0.2,0.1-0.3c0-0.2-0.2-0.4-0.4-0.4H8.8c-0.1,0-0.2,0-0.3,0.1c-0.1,0.1-0.1,0.2-0.1,0.3C8.4,15.1,8.6,15.3,8.8,15.3
					L8.8,15.3z"/>
			</g>
			<g>
				<path id="Path_1326_1_" class="st0" d="M16.1,21.7H8.8c-0.3,0-0.6,0.3-0.6,0.6c0,0.3,0.3,0.6,0.6,0.6h7.4c0.3,0,0.6-0.3,0.6-0.6
					C16.8,21.9,16.5,21.7,16.1,21.7L16.1,21.7z"/>
				<path class="st0" d="M16.1,23.1H8.8c-0.5,0-0.9-0.4-0.9-0.9c0-0.5,0.4-0.9,0.9-0.9h7.4c0.5,0,0.9,0.4,0.9,0.9
					C17,22.8,16.6,23.1,16.1,23.1z M8.8,21.9c-0.2,0-0.4,0.2-0.4,0.4s0.2,0.4,0.4,0.4h7.4c0.2,0,0.4-0.2,0.4-0.4s-0.2-0.4-0.4-0.4
					H8.8z"/>
			</g>
			<g>
				<path id="Path_1327_1_" class="st0" d="M29.2,10.6c0,0-0.1,0-0.1,0V5.7c0-1.4-1.1-2.5-2.5-2.5H4.4C3.1,3.2,2,4.3,2,5.7v22.1
					c0,1.4,1.1,2.5,2.5,2.5h22.1c1.4,0,2.5-1.1,2.5-2.5V16.4l1.8-1.8l0,0c0.9-0.9,0.9-2.4,0-3.3C30.4,10.8,29.8,10.6,29.2,10.6
					L29.2,10.6z M3.2,5.7c0-0.7,0.6-1.2,1.2-1.2h22.1c0.7,0,1.2,0.6,1.2,1.2v2.5H3.2V5.7z M27.8,27.8c0,0.7-0.6,1.2-1.2,1.2H4.4
					c-0.7,0-1.2-0.6-1.2-1.2V9.4h24.6V11c-0.1,0.1-0.2,0.2-0.3,0.3L20.8,18h-12c-0.3,0-0.6,0.3-0.6,0.6c0,0.3,0.3,0.6,0.6,0.6
					c0,0,0,0,0,0h11.1l-0.6,3c-0.1,0.3,0.1,0.7,0.5,0.7c0,0,0.1,0,0.1,0c0,0,0.1,0,0.1,0l3.1-0.6c0.1,0,0.2-0.1,0.3-0.2l4.5-4.5
					L27.8,27.8z M22.6,21.1l-2,0.4l0.4-2l5.6-5.6l1.6,1.6L22.6,21.1z M30,13.7l-0.9,0.9l-1.6-1.6l0.9-0.9c0.4-0.4,1.2-0.4,1.6,0
					S30.4,13.3,30,13.7z"/>
				<path class="st0" d="M26.6,30.5H4.4c-1.5,0-2.7-1.2-2.7-2.7V5.7C1.7,4.2,3,3,4.4,3h22.1c1.5,0,2.7,1.2,2.7,2.7v4.7
					c0.6,0,1.2,0.3,1.7,0.8c0.5,0.5,0.8,1.1,0.8,1.8c0,0.7-0.3,1.3-0.8,1.8l-1.7,1.7v11.3C29.3,29.3,28.1,30.5,26.6,30.5z M4.4,3.5
					c-1.2,0-2.2,1-2.2,2.2v22.1c0,1.2,1,2.2,2.2,2.2h22.1c1.2,0,2.2-1,2.2-2.2V16.3l1.8-1.8c0.4-0.4,0.6-0.9,0.6-1.5
					s-0.2-1.1-0.6-1.5c-0.4-0.4-0.9-0.6-1.4-0.6l-0.5,0v-0.3l-0.3-0.3h0.3V5.7c0-1.2-1-2.2-2.2-2.2H4.4z M26.6,29.3H4.4
					c-0.8,0-1.5-0.7-1.5-1.5V9.1h25.1v2L28,11.2c-0.1,0.1-0.2,0.2-0.3,0.2l-6.8,6.8H8.8c-0.2,0-0.4,0.2-0.4,0.4
					c0,0.2,0.2,0.4,0.4,0.4h11.4l-0.7,3.3c0,0.1,0,0.2,0.1,0.3s0.1,0.1,0.2,0.2c0,0,0.1,0,0.1,0L23,22c0.1,0,0.1,0,0.2-0.1l4.9-4.9
					v10.8C28.1,28.6,27.4,29.3,26.6,29.3z M3.5,9.6v18.2c0,0.5,0.4,1,1,1h22.1c0.5,0,1-0.4,1-1v-9.6l-4.1,4.1
					c-0.1,0.1-0.3,0.2-0.4,0.2L20,23.1c-0.1,0-0.2,0-0.3,0c-0.2,0-0.4-0.2-0.5-0.4c-0.1-0.2-0.2-0.4-0.1-0.7l0.5-2.7H8.8
					c-0.5,0-0.9-0.4-0.9-0.9c0-0.5,0.4-0.9,0.9-0.9h11.9l6.6-6.6c0.1-0.1,0.2-0.2,0.3-0.2V9.6H3.5z M20.3,21.8l0.5-2.4l5.8-5.8
					l1.9,1.9l-5.8,5.8L20.3,21.8z M21.2,19.6l-0.3,1.5l1.5-0.3l5.4-5.4l-1.2-1.2L21.2,19.6z M29.1,15l-1.9-1.9l1.1-1.1
					c0.5-0.5,1.4-0.5,1.9,0c0.3,0.3,0.4,0.6,0.4,1c0,0.4-0.1,0.7-0.4,1L29.1,15z M27.8,13.1l1.2,1.2l0.7-0.7
					c0.2-0.2,0.3-0.4,0.3-0.6c0-0.2-0.1-0.5-0.3-0.6c-0.3-0.3-0.9-0.3-1.2,0L27.8,13.1z M28.1,8.4H3V5.7c0-0.8,0.7-1.5,1.5-1.5h22.1
					c0.8,0,1.5,0.7,1.5,1.5V8.4z M3.5,7.9h24.1V5.7c0-0.5-0.4-1-1-1H4.4c-0.5,0-1,0.4-1,1V7.9z"/>
			</g>
		</g>
	</g>
</g>
</svg>
