<svg xmlns="http://www.w3.org/2000/svg" viewBox="0 0 40.588 34.062">
  <defs>
    <style>
      .cls-1 {
        fill: #e82012;
        fill-rule: evenodd;
      }
    </style>
  </defs>
  <path id="Path_1387" data-name="Path 1387" class="cls-1" d="M26.665,20.117c.808.539,1.706,1.167,2.6,1.885a36.9,36.9,0,0,0,4.579,3.053c2.065,1.167,3.861,1.8,4.579.628.628-1.167-.628-2.334-2.6-3.412a44.734,44.734,0,0,0-5.118-2.424c-1.167-.449-2.245-.988-3.142-1.436l-.9,1.706ZM22.266,22a2.708,2.708,0,0,1-1.347-2.963l-1.8-1.077-.449.808a.7.7,0,0,1-.359.359,5.279,5.279,0,0,0-2.155,1.8,2.58,2.58,0,0,1-.09,2.424,2.473,2.473,0,0,1-2.693,1.257,11.5,11.5,0,0,1-4.22-1.616,11.755,11.755,0,0,1-3.591-2.873A2.744,2.744,0,0,1,5.3,17.065a2.459,2.459,0,0,1,2.065-1.257,5.877,5.877,0,0,0,.449-2.783,1.139,1.139,0,0,1,.09-.539l3.771-6.554a.9.9,0,0,1,.449-.359,5.659,5.659,0,0,0,2.065-1.8,2.58,2.58,0,0,1,.09-2.424A2.473,2.473,0,0,1,16.969.1a11.5,11.5,0,0,1,4.22,1.616A11.755,11.755,0,0,1,24.78,4.585a2.922,2.922,0,0,1,.269,3.053,2.459,2.459,0,0,1-2.065,1.257,5.518,5.518,0,0,0-.449,2.693,1.528,1.528,0,0,1-.09.628L22,13.025l1.8,1.077a2.831,2.831,0,0,1,3.322-.269A2.708,2.708,0,0,1,28.461,16.8a25.485,25.485,0,0,0,3.053,1.347,47.946,47.946,0,0,1,5.3,2.514c2.873,1.616,4.669,3.591,3.322,6.015-1.436,2.514-4.22,1.8-7.182.09a40.411,40.411,0,0,1-4.758-3.232c-.988-.718-1.885-1.347-2.6-1.885A2.994,2.994,0,0,1,22.266,22Zm-.539-4.758.988-1.616L21.1,14.641l-.988,1.616,1.616.988Zm4.4-1.885a1.014,1.014,0,0,1,.359,1.347L24.6,20.027a.986.986,0,1,1-1.706-.988l1.885-3.322a1.014,1.014,0,0,1,1.347-.359Zm-11.492,4.4a10.208,10.208,0,0,1,1.347-1.436L9.607,14.641a7.453,7.453,0,0,1-.539,1.885l5.566,3.232Zm2.873-2.783,2.873-4.938L12.928,7.727l-2.873,4.938,7.452,4.309Zm3.232-6.913a7.453,7.453,0,0,1,.539-1.885L15.712,4.944a10.208,10.208,0,0,1-1.347,1.436l6.374,3.681ZM9.966,21.374a10.447,10.447,0,0,0,3.5,1.436c.449,0,.808-.09.9-.359a1.331,1.331,0,0,0,.09-.628l-7.093-4.04a.6.6,0,0,0-.449.359c-.18.269-.09.539.18.988a8.57,8.57,0,0,0,2.873,2.245ZM15.981,2.251a1.331,1.331,0,0,0-.09.628l7.093,4.04a.6.6,0,0,0,.449-.359.7.7,0,0,0-.09-.9A8.959,8.959,0,0,0,20.38,3.328a10.447,10.447,0,0,0-3.5-1.436.945.945,0,0,0-.9.359Zm4.13,28.1H3.322c-1.077,0-1.347.988-1.436,1.885H21.547c0-.9-.269-1.885-1.436-1.885Zm0-1.885H3.322C.718,28.467,0,30.711,0,33.225a.923.923,0,0,0,.988.9H22.535a1,1,0,0,0,.988-.988C23.523,30.711,22.8,28.467,20.111,28.467Z" transform="translate(0 -0.062)"/>
</svg>
