<svg xmlns="http://www.w3.org/2000/svg" viewBox="0 0 37.803 37.062">
  <defs>
    <style>
      .cls-1 {
        fill: #e82012;
        fill-rule: evenodd;
      }
    </style>
  </defs>
  <path id="Path_1384" data-name="Path 1384" class="cls-1" d="M5.93,33.077v1.946H8.061V33.077ZM11.489,3.984A1.019,1.019,0,1,1,10.47,5a.972.972,0,0,1,1.019-1.019Zm2.965,0A1.019,1.019,0,1,1,13.435,5a.972.972,0,0,1,1.019-1.019Zm2.965,0A1.019,1.019,0,1,1,16.4,5a.972.972,0,0,1,1.019-1.019Zm2.965,0A1.019,1.019,0,1,1,19.365,5a.972.972,0,0,1,1.019-1.019Zm2.965,0A1.019,1.019,0,1,1,22.33,5a.972.972,0,0,1,1.019-1.019Zm2.965,0A1.019,1.019,0,1,1,25.295,5a.972.972,0,0,1,1.019-1.019Zm7.5.556V7.876h2.5A1.463,1.463,0,0,1,37.8,9.358v5.559H35.857v-5.1H33.911V35.486a1.562,1.562,0,0,1-1.575,1.575H29.371A1.624,1.624,0,0,1,27.8,35.486V33.077H10.007v2.409a1.624,1.624,0,0,1-1.575,1.575H5.467a1.624,1.624,0,0,1-1.575-1.575V9.821H1.946v5.1H0V9.358A1.463,1.463,0,0,1,1.482,7.876h2.5V4.54A4.529,4.529,0,0,1,8.432,0H29.279a4.547,4.547,0,0,1,4.54,4.54Zm-1.946,0a2.651,2.651,0,0,0-2.594-2.594H8.432A2.651,2.651,0,0,0,5.837,4.54V31.132H31.78V25.2H7.876a1.019,1.019,0,0,1,0-2.038h24V9.729h-24a1.019,1.019,0,0,1,0-2.038h24V4.54Zm0,28.537H29.742v1.946h2.131V33.077Zm-5.745-5.93v1.946h3.8V27.148ZM11.674,29.186V27.24h-3.8v1.946Z"/>
</svg>
