<svg xmlns="http://www.w3.org/2000/svg" viewBox="0 0 264.153 73.103">
  <defs>
    <style>
      .cls-1 {
        fill: #fff;
      }
    </style>
  </defs>
  <g id="Group_451" data-name="Group 451" transform="translate(-211 19)">
    <g id="Group_450" data-name="Group 450" transform="translate(211 -19)">
      <g id="Group_448" data-name="Group 448">
        <path id="Path_649" data-name="Path 649" class="cls-1" d="M211.112,60.8c-1.945,0-3.828.061-5.712.182h18.169c-1.884-.061-3.768-.122-5.712-.182h-6.745" transform="translate(-80.585 -23.854)"/>
        <path id="Path_650" data-name="Path 650" class="cls-1" d="M214.8,60.771h3.4a31.783,31.783,0,0,0-3.4,0" transform="translate(-84.273 -23.824)"/>
        <rect id="Rectangle_707" data-name="Rectangle 707" class="cls-1" width="259.9" height="0.547" transform="translate(0.547 67.269)"/>
        <path id="Path_651" data-name="Path 651" class="cls-1" d="M260.994,118.1H0v1.337H261.48V118.1Z" transform="translate(0 -46.334)"/>
        <path id="Path_652" data-name="Path 652" class="cls-1" d="M229.5,33.6Z" transform="translate(-90.04 -13.182)"/>
        <path id="Path_653" data-name="Path 653" class="cls-1" d="M229.561,33.6m-.061,0Z" transform="translate(-90.04 -13.182)"/>
        <path id="Path_654" data-name="Path 654" class="cls-1" d="M16.75,46.78A8.461,8.461,0,0,1,19,47.388a5.4,5.4,0,0,1,2.431,2.37,9.462,9.462,0,0,1,.851,4.375c0,2.735-.729,4.679-2.127,5.834a7.1,7.1,0,0,1-3.4,1.458v1.823a9,9,0,0,1,4.922,1.884q2.37,2.1,2.37,6.563c0,2.917-.668,5.1-2.066,6.563a8.093,8.093,0,0,1-5.226,2.127V81.66a32.938,32.938,0,0,0,5.834-.729,9.646,9.646,0,0,0,5.165-3.221,8.949,8.949,0,0,0,2.005-5.834,8.341,8.341,0,0,0-2.978-6.5c-2.005-1.7-4.983-2.735-9.115-3.1a15.189,15.189,0,0,0,7.6-2.856,7.151,7.151,0,0,0,2.491-5.651q0-7.383-11.12-8.386v1.4M6.42,45.443l-5.894.182v1.215h.668a8.389,8.389,0,0,1,3.524.486,2.265,2.265,0,0,1,1.033,1.762,36.5,36.5,0,0,1,.243,5.651V72.3a48,48,0,0,1-.243,5.773A2.749,2.749,0,0,1,4.6,79.9a6.375,6.375,0,0,1-3.16.608H.1v1.215H14.137c.912,0,1.762,0,2.552-.061V80.384a6.979,6.979,0,0,1-1.155.061c-1.58,0-2.674-.243-3.16-.729a3.213,3.213,0,0,1-1.033-2.066c-.122-.972-.182-3.1-.182-6.563V63.065C11.828,63,12.557,63,13.165,63a20.936,20.936,0,0,1,3.524.243V61.425a22.647,22.647,0,0,1-4.375.365,7.374,7.374,0,0,1-1.094-.061V46.6c.729,0,1.4-.061,2.066-.061a27.338,27.338,0,0,1,3.4.182v-1.4A33.584,33.584,0,0,0,13.1,45.2l-6.684.243" transform="translate(-0.039 -17.733)"/>
        <path id="Path_655" data-name="Path 655" class="cls-1" d="M70.122,86.967h.061v-.912h-.061Zm0-26.13a4.881,4.881,0,0,1,3.221,1.519,6.813,6.813,0,0,1,1.4,4.558,8.759,8.759,0,0,1-.365,2.735,4.948,4.948,0,0,1-1.155,1.823A4.339,4.339,0,0,1,71.337,72.5a7.168,7.168,0,0,1-1.215.243v3.707c.911,1.094,1.762,2.248,2.552,3.4,2.613,3.828,4.618,6.2,5.894,7.11H85.8v-.912a7.438,7.438,0,0,1-4.132-1.337,29.423,29.423,0,0,1-4.8-5.408c-2.491-3.4-4.314-5.347-5.408-5.894a9.889,9.889,0,0,0,5.712-2.309,6.023,6.023,0,0,0,1.945-4.5,5.776,5.776,0,0,0-1.458-3.95,8.75,8.75,0,0,0-3.889-2.37,18.955,18.955,0,0,0-3.646-.608v1.155m-8.75-1.094-3.828.182v.912h.425a6.165,6.165,0,0,1,2.674.365,1.944,1.944,0,0,1,.79,1.276,29.081,29.081,0,0,1,.182,4.193V79.857a30.013,30.013,0,0,1-.182,4.314,1.987,1.987,0,0,1-.851,1.4,4.41,4.41,0,0,1-2.37.425H57.3v.912H70.122v-.912H68.906a4.656,4.656,0,0,1-2.491-.486,2.151,2.151,0,0,1-.79-1.458,29.678,29.678,0,0,1-.182-4.193V73.9h1.094a2.629,2.629,0,0,1,1.58.365A11.486,11.486,0,0,1,70,76.332l.061.122V72.747c-.486.061-.972.122-1.58.182-1.033.061-2.066.122-3.1.122v-12.4c.668-.061,1.215-.122,1.7-.122A19.431,19.431,0,0,1,70,60.776V59.622c-.79-.061-1.7-.122-2.674-.122-1.4.061-3.4.122-5.955.243" transform="translate(-22.481 -23.344)"/>
        <path id="Path_656" data-name="Path 656" class="cls-1" d="M116.8,64.644h0m-6.684,13.733c-.547,1.337-.912,2.127-.972,2.309a14.622,14.622,0,0,1-2.066,4.132,4.279,4.279,0,0,1-2.674,1.276v.911h8.021v-.911a3.393,3.393,0,0,1-2.127-.608,2.152,2.152,0,0,1-.79-1.823,19.022,19.022,0,0,1,1.519-4.861l.729-1.762h5.1v-.912h-4.8l4.74-11.485v-2.37l-6.684,16.1M117.951,59.6l-1.094,2.674V64.7l4.8,11.424h-4.8v.912h5.1l2.066,4.983a11.627,11.627,0,0,1,.911,2.613,1.123,1.123,0,0,1-.668,1.155,8.125,8.125,0,0,1-2.613.3v.911h10.573v-.911a3.919,3.919,0,0,1-2.066-.668,3.741,3.741,0,0,1-1.155-1.519l-1.215-2.8L118.741,59.6h-.79" transform="translate(-40.959 -23.383)"/>
        <path id="Path_657" data-name="Path 657" class="cls-1" d="M201.682,60.261l-.182,6.5h.911A10.089,10.089,0,0,1,203.627,63a2.975,2.975,0,0,1,1.641-1.519,15.045,15.045,0,0,1,3.524-.243H212.8v19.02a30.016,30.016,0,0,1-.182,4.314,1.987,1.987,0,0,1-.851,1.4,4.41,4.41,0,0,1-2.37.425H208V87.3h13.429v-.912h-1.4a4.809,4.809,0,0,1-2.491-.486,2.151,2.151,0,0,1-.79-1.458,28.62,28.62,0,0,1-.182-4.132V61.172h4.314a17.831,17.831,0,0,1,3.16.243,3.393,3.393,0,0,1,1.7,1.458,9.1,9.1,0,0,1,1.215,3.828h.851l-.122-6.5H201.682" transform="translate(-79.055 -23.618)"/>
        <path id="Path_658" data-name="Path 658" class="cls-1" d="M248.461,60.3v.912h.486a6.165,6.165,0,0,1,2.674.365,1.944,1.944,0,0,1,.79,1.276,29.083,29.083,0,0,1,.182,4.193V80.232a30.016,30.016,0,0,1-.182,4.314,1.987,1.987,0,0,1-.851,1.4,4.41,4.41,0,0,1-2.37.425h-.79v.911h12.518v-.911h-.911a4.656,4.656,0,0,1-2.491-.486,1.941,1.941,0,0,1-.79-1.458,29.682,29.682,0,0,1-.182-4.193V73.547h2.491a6.355,6.355,0,0,1,2.674.365,2.148,2.148,0,0,1,1.033,1.4,8.471,8.471,0,0,1,.3,2.735h.972V68.5h-.972c0,1.641-.243,2.8-.79,3.342s-1.641.79-3.281.79h-2.491V61.212h5.287a12.3,12.3,0,0,1,3.585.365,3.965,3.965,0,0,1,2.005,1.823,7.425,7.425,0,0,1,1.215,3.646h.972L269.3,60.3H248.461" transform="translate(-97.455 -23.658)"/>
        <path id="Path_659" data-name="Path 659" class="cls-1" d="M301.423,59.4a14.79,14.79,0,0,0-10.391,3.768A12.892,12.892,0,0,0,286.9,73.194a13.772,13.772,0,0,0,4.071,10.33,14.607,14.607,0,0,0,10.513,3.889v-.972c-3.281-.061-5.834-1.155-7.474-3.281-1.762-2.188-2.613-5.408-2.613-9.783,0-4.254.851-7.474,2.613-9.662q2.552-3.281,7.474-3.281h.061v-.972h-.122m.061.972c3.281.061,5.773,1.155,7.474,3.342,1.762,2.248,2.613,5.469,2.613,9.6,0,4.314-.911,7.535-2.674,9.723a8.693,8.693,0,0,1-7.17,3.281h-.243v.972a14.7,14.7,0,0,0,10.634-3.889,13.5,13.5,0,0,0,4.011-10.148q0-6.472-4.193-10.209A15.075,15.075,0,0,0,301.484,59.4v1.033" transform="translate(-112.56 -23.304)"/>
        <path id="Path_660" data-name="Path 660" class="cls-1" d="M352.922,86.967h.061v-.912h-.061Zm0-26.13a4.881,4.881,0,0,1,3.221,1.519,6.813,6.813,0,0,1,1.4,4.558,7.182,7.182,0,0,1-.425,2.735,4.28,4.28,0,0,1-1.155,1.823,4.339,4.339,0,0,1-1.884,1.033,7.169,7.169,0,0,1-1.215.243v3.707c.912,1.094,1.762,2.248,2.552,3.4,2.674,3.828,4.618,6.2,5.894,7.11H368.6v-.912a7.284,7.284,0,0,1-4.132-1.337,27.313,27.313,0,0,1-4.8-5.408c-2.491-3.4-4.314-5.347-5.408-5.894a9.889,9.889,0,0,0,5.712-2.309,5.811,5.811,0,0,0,1.945-4.5,5.554,5.554,0,0,0-1.519-3.95,8.427,8.427,0,0,0-3.889-2.37,19.106,19.106,0,0,0-3.585-.608v1.155m-8.75-1.094-3.889.182v.912h.486a6.165,6.165,0,0,1,2.674.365,1.944,1.944,0,0,1,.79,1.276,29.084,29.084,0,0,1,.182,4.193V79.857a30.016,30.016,0,0,1-.182,4.314,1.987,1.987,0,0,1-.851,1.4,4.552,4.552,0,0,1-2.37.425H340.1v.912h12.822v-.912h-1.215a4.4,4.4,0,0,1-2.431-.486,2.151,2.151,0,0,1-.79-1.458,29.675,29.675,0,0,1-.182-4.193V73.9H349.4a2.758,2.758,0,0,1,1.58.365,11.486,11.486,0,0,1,1.884,2.066l.061.122V72.747c-.486.061-1.033.122-1.58.182-1.033.061-2.066.122-3.1.122v-12.4c.608-.061,1.215-.122,1.7-.122a20.164,20.164,0,0,1,2.917.243V59.622c-.79-.061-1.7-.122-2.674-.122-1.4.061-3.464.122-6.016.243" transform="translate(-133.432 -23.344)"/>
        <path id="Path_661" data-name="Path 661" class="cls-1" d="M404.582,61.158l.608.182a8.453,8.453,0,0,1,3.646,2.309,11.417,11.417,0,0,1,2.552,4.375A19.046,19.046,0,0,1,412.3,74.1a15.752,15.752,0,0,1-1.519,7.231,7.784,7.784,0,0,1-3.768,3.768,8.39,8.39,0,0,1-2.37.668v1.094c.365-.061.729-.061,1.094-.122a13.374,13.374,0,0,0,3.95-1.094,11.024,11.024,0,0,0,3.585-2.431,10.86,10.86,0,0,0,2.431-4.071,15.543,15.543,0,0,0,.911-5.408,15.292,15.292,0,0,0-1.641-7.231,12.288,12.288,0,0,0-4.983-4.983,17.378,17.378,0,0,0-5.347-1.58v1.215M393.1,60.065l-4.436.243v.912h.79a8.04,8.04,0,0,1,2.674.3,1.944,1.944,0,0,1,.79,1.337,28.5,28.5,0,0,1,.182,4.193v13a30.016,30.016,0,0,1-.182,4.314,1.987,1.987,0,0,1-.851,1.4,4.552,4.552,0,0,1-2.37.425H388.6v.911h11.91c1.641,0,3.038-.061,4.071-.122V85.891a19.468,19.468,0,0,1-3.4.243,6.2,6.2,0,0,1-3.16-.486,2.187,2.187,0,0,1-.911-1.58,43.9,43.9,0,0,1-.182-5.165V60.794c1.033-.061,2.066-.122,3.038-.122a19.349,19.349,0,0,1,4.557.425V59.943a27.349,27.349,0,0,0-4.011-.243c-1.215.061-3.707.122-7.414.365" transform="translate(-152.46 -23.422)"/>
        <path id="Path_662" data-name="Path 662" class="cls-1" d="M161,.547c-14.28,2.127-28.5,10.209-28.5,21.572,2.552,15.617,29.593,12.093,43.752,7.9,0-.486.061-.912.061-1.337a10.259,10.259,0,0,0-1.458.486c-13,2.613-28.2,7.049-36.885-3.221-7.353-12.518,8.386-21.755,24-24,22.058-2.066,47.7.668,60.463,15.617l1.945-.243a2.992,2.992,0,0,1-.365-1.033,143.733,143.733,0,0,1,17.8-2.735,4.691,4.691,0,0,1,.122-.912c-3.221.122-3.221.122-5.408.3-.061,0-12.883,2.431-13.916,2.005C210.464,3.646,192.538,0,174.186,0c-4.375,0-8.811.182-13.186.547" transform="translate(-51.984 0)"/>
        <path id="Path_663" data-name="Path 663" class="cls-1" d="M112.026,56.892h-.182s.365.061.182,0m-54.2-6.927v.365l-.122.365.122.3h9.3c2.127.061,4.011.061,5.955.061h4.861c4.011.061,9.176,0,12.943,0h10.027q1,.82,2.188,1.641a23.92,23.92,0,0,0,2.431,1.58,27.73,27.73,0,0,0,2.674,1.458,12.49,12.49,0,0,0,3.707,1.094h.061c.243,0,.365.061.851.122h1.58c.3,0,.122-.122.122-.182a1.129,1.129,0,0,0,0-.486c0-.122.122-.3-.122-.3-.243-.061-1.4-.061-2.005-.122a5.5,5.5,0,0,1-1.7-.365,14.054,14.054,0,0,1-2.735-1.276c-.79-.486-1.58-.972-2.309-1.458s-1.4-1.033-2.066-1.58a21.727,21.727,0,0,1-1.7-1.58H57.7l.122.365" transform="translate(-22.638 -19.46)"/>
        <path id="Path_664" data-name="Path 664" class="cls-1" d="M170.428,60.3v.912a7.605,7.605,0,0,1,2.735.425,2.56,2.56,0,0,1,1.519,1.155,5.922,5.922,0,0,1,.365,2.491v16.1L159.125,60.3h-7.96v.912a8.412,8.412,0,0,1,2.8.3,2.1,2.1,0,0,1,.911,1.337,21.055,21.055,0,0,1,.243,4.193v14.28a15.3,15.3,0,0,1-.182,3.1c-.122.486-.547.851-1.215,1.215a7.8,7.8,0,0,1-2.917.729v.912h10.027v-.912a6.443,6.443,0,0,1-3.221-.608,2.576,2.576,0,0,1-1.337-1.337,11.3,11.3,0,0,1-.243-3.1V62.609l19.02,25.279h.851V65.526a10.224,10.224,0,0,1,.243-2.431,2.36,2.36,0,0,1,1.215-1.215,7.49,7.49,0,0,1,2.735-.668V60.3h-9.662" transform="translate(-59.164 -23.658)"/>
        <path id="Path_665" data-name="Path 665" class="cls-1" d="M243.541,26.717a2.725,2.725,0,0,0-.668-.061l-1.823.3-.243.243q-21.511,6.289-42.9,12.579a5.227,5.227,0,0,1-.972.061V38.809c14.28-4.132,28.439-8.447,42.841-12.518a1.247,1.247,0,0,0-.912-1.033c-13.976,3.524-27.831,8.264-41.443,12.093,1.033-4.375,6.927-8.082,13.186-6.624,4.618,2.8,5.834-1.337-.486-2.248-10.148.425-14.4,5.1-15.192,12.032-3.221,1.58-10.938,2.856-14.706,3.768l-.122.3c1.337,0,2.674,0,3.95.061,4.74.061,9.3.182,14.037-1.215,8.933-2.917,41.139-13.976,44.785-13.976,5.591,8.143,3.828,19.142-7.17,24.611-13.065,4.983-36.1,2.066-38.587-10.027a4.178,4.178,0,0,0-1.58.486c4.011,8.568,10.695,12.153,23.517,13.065h7.292c19.324-2.917,23.881-13.855,19.385-26.737-.972-1.458-.972-1.458-1.094-2.005a92.1,92.1,0,0,1,23.638-3.281c11.971,1.519,14.219,10.027,2.674,14.037l-.122,1.215,51.1-.061v-1.58H275.382l.182-.547c4.618-3.524,6.381-7.474,2.005-11.424-3.585-2.491-8.507-3.4-13.673-3.4-7.17.122-14.827,1.762-20.357,2.917" transform="translate(-70.659 -9.337)"/>
      </g>
      <g id="Group_449" data-name="Group 449" transform="translate(35.062 18.23)">
        <path id="Path_666" data-name="Path 666" class="cls-1" d="M61.711,31.276a2.4,2.4,0,0,0-1.884.851,3.379,3.379,0,0,0-.668,2.309,3.489,3.489,0,0,0,.668,2.309,2.272,2.272,0,0,0,1.884.79,5.351,5.351,0,0,0,1.033-.122c.3-.061.668-.182,1.033-.243v1.155a6.463,6.463,0,0,1-2.248.365A3.709,3.709,0,0,1,58.672,37.6a4.643,4.643,0,0,1-.972-3.221,5.6,5.6,0,0,1,.486-2.309,3.389,3.389,0,0,1,1.4-1.519A4.105,4.105,0,0,1,61.711,30a5.225,5.225,0,0,1,2.37.547l-.425,1.276-.912-.365A2.839,2.839,0,0,0,61.711,31.276Z" transform="translate(-57.7 -30)"/>
        <path id="Path_667" data-name="Path 667" class="cls-1" d="M70,38.786V30.4h1.4v8.386Z" transform="translate(-62.526 -30.157)"/>
        <path id="Path_668" data-name="Path 668" class="cls-1" d="M77.389,38.786h-1.4V31.555H73.5V30.4h6.32v1.155H77.328v7.231Z" transform="translate(-63.899 -30.157)"/>
        <path id="Path_669" data-name="Path 669" class="cls-1" d="M87.764,34.228,89.769,30.4h1.519l-2.8,5.165v3.281H87.1V35.626l-2.8-5.165h1.519Z" transform="translate(-68.136 -30.157)"/>
        <path id="Path_670" data-name="Path 670" class="cls-1" d="M109.7,34.475a4.49,4.49,0,0,1-1.033,3.16,3.79,3.79,0,0,1-2.917,1.155,3.59,3.59,0,0,1-2.917-1.155,4.655,4.655,0,0,1-1.033-3.221,4.763,4.763,0,0,1,1.033-3.221A3.558,3.558,0,0,1,105.75,30.1a3.672,3.672,0,0,1,2.917,1.155A4.473,4.473,0,0,1,109.7,34.475Zm-6.381,0a3.8,3.8,0,0,0,.608,2.37,2.2,2.2,0,0,0,1.884.79,2.08,2.08,0,0,0,1.823-.79,3.8,3.8,0,0,0,.608-2.37,3.8,3.8,0,0,0-.608-2.37,2.152,2.152,0,0,0-1.823-.79,2.2,2.2,0,0,0-1.884.79A3.8,3.8,0,0,0,103.319,34.475Z" transform="translate(-75.002 -30.039)"/>
        <path id="Path_671" data-name="Path 671" class="cls-1" d="M118.4,38.786H117V30.4h4.74v1.155h-3.4v2.613h3.16v1.155h-3.16v3.464Z" transform="translate(-80.965 -30.157)"/>
      </g>
    </g>
  </g>
</svg>
