<?xml version="1.0" encoding="utf-8"?>
<!-- Generator: Adobe Illustrator 23.0.0, SVG Export Plug-In . SVG Version: 6.00 Build 0)  -->
<svg version="1.1" id="Layer_1" xmlns="http://www.w3.org/2000/svg" xmlns:xlink="http://www.w3.org/1999/xlink" x="0px" y="0px"
	 width="54px" height="54px" viewBox="0 0 54 54" style="enable-background:new 0 0 54 54;" xml:space="preserve">
<style type="text/css">
	.st0{fill:#EF4135;}
</style>
<g>
	<g id="Group_340" transform="translate(0)">
		<g id="Group_339">
			<path id="Path_297" class="st0" d="M27,5.9c-8.2,0-14.8,6.6-14.8,14.8c0,2.8,0.8,5.5,2.2,7.8l11.8,18.9c0.2,0.4,0.6,0.6,1,0.6h0
				c0.4,0,0.8-0.2,1-0.6l11.5-19.1c4.2-7,1.9-16.1-5.1-20.3C32.3,6.7,29.7,5.9,27,5.9z M37.6,27.1L27.2,44.5L16.5,27.2
				c-3.6-5.8-1.8-13.4,4-17s13.4-1.8,17,4C39.9,18.2,40,23.1,37.6,27.1L37.6,27.1z"/>
		</g>
	</g>
	<g id="Group_342" transform="translate(7.404 7.404)">
		<g id="Group_341">
			<path id="Path_298" class="st0" d="M19.6,5.9c-4.1,0-7.4,3.3-7.4,7.4s3.3,7.4,7.4,7.4c4.1,0,7.4-3.3,7.4-7.4c0,0,0,0,0,0
				C27,9.3,23.7,5.9,19.6,5.9z M19.6,18.3c-2.7,0-5-2.2-5-4.9c0-2.7,2.2-5,4.9-5c2.7,0,5,2.2,5,4.9c0,0,0,0,0,0
				C24.5,16.1,22.3,18.3,19.6,18.3z"/>
		</g>
	</g>
</g>
</svg>
