<?xml version="1.0" encoding="utf-8"?>
<!-- Generator: Adobe Illustrator 23.0.0, SVG Export Plug-In . SVG Version: 6.00 Build 0)  -->
<svg version="1.1" id="Layer_1" xmlns="http://www.w3.org/2000/svg" xmlns:xlink="http://www.w3.org/1999/xlink" x="0px" y="0px"
	 width="54px" height="54px" viewBox="0 0 54 54" style="enable-background:new 0 0 54 54;" xml:space="preserve">
<style type="text/css">
	.st0{fill:#EF4135;stroke:#EDEDED;stroke-width:0.5;}
</style>
<g id="Group_348" transform="translate(0.25 0.25)">
	<g id="_001-laptop" transform="translate(0 0)">
		<path id="Path_292" class="st0" d="M44,36.2H31.5c-0.7,0-1.3,0.6-1.3,1.3c0,0,0,0,0,0l0,0.3l-6.8,0v-0.2c0-0.7-0.6-1.3-1.3-1.3
			c0,0,0,0,0,0H9.5c-0.7,0-1.4,0.6-1.4,1.3c0,0.7,0.6,1.4,1.3,1.4c0,0,0,0,0.1,0h11.3c0.4,1,1.4,1.6,2.5,1.6h6.8
			c1.1,0,2-0.6,2.5-1.6H44c0.7,0,1.3-0.6,1.3-1.3c0,0,0,0,0,0C45.3,36.8,44.7,36.2,44,36.2C44,36.2,44,36.2,44,36.2z"/>
		<path id="Path_293" class="st0" d="M52.2,36.2h-2.5V11.8c0,0,0-0.1,0-0.1c-0.2-1.9-1.7-3.4-3.6-3.4H7.4c-1.9,0-3.5,1.6-3.5,3.5
			v24.4H1.3c-0.7,0-1.3,0.6-1.3,1.3c0,0,0,0,0,0v2.5c0,2.8,2.3,5.2,5.2,5.2h43.2c2.8,0,5.2-2.3,5.2-5.2v-2.5
			C53.5,36.8,53,36.2,52.2,36.2C52.2,36.2,52.2,36.2,52.2,36.2z M50.8,40.1c0,1.4-1.1,2.5-2.5,2.5H5.2c-1.4,0-2.5-1.1-2.5-2.5v-1.2
			h2.5c0.7,0,1.3-0.6,1.3-1.3c0,0,0,0,0,0V11.8c0-0.5,0.4-0.8,0.8-0.8h0H46c0.5,0,0.9,0.4,1,0.9v25.6c0,0.7,0.6,1.3,1.3,1.3h2.5
			L50.8,40.1z"/>
	</g>
	<g id="Group_343" transform="translate(19.312 7.571)">
		<g id="Group_347" transform="translate(0 0)">
			<path id="Path_301" class="st0" d="M15.4,13.5c-0.1-0.2-0.4-0.4-0.6-0.5L1.4,8.3C0.9,8.1,0.2,8.4,0.1,9c0,0,0,0,0,0
				C0,9.3,0,9.5,0,9.7l4.6,13.3c0.1,0.4,0.5,0.7,1,0.7h0.1c0.4,0,0.8-0.2,1-0.6L8.4,20l2.2,2.2c0.4,0.4,1.1,0.4,1.5,0c0,0,0,0,0,0
				l1.8-1.8c0.4-0.4,0.4-1.1,0-1.5c0,0,0,0,0,0l-2.2-2.2l3.2-1.7C15.5,14.7,15.7,14,15.4,13.5z M8.9,16.9C9,17,9.1,17.1,9.1,17.2
				l2.5,2.5l-0.3,0.3l-2.5-2.5c-0.4-0.4-1.1-0.4-1.5,0c0,0,0,0,0,0c-0.1,0.1-0.1,0.2-0.2,0.3L5.9,20l-3.1-8.8l8.8,3.1l-2.3,1.2
				C8.9,15.7,8.7,16.4,8.9,16.9C8.9,16.9,8.9,16.9,8.9,16.9L8.9,16.9z"/>
		</g>
	</g>
</g>
</svg>
