<?xml version="1.0" encoding="utf-8"?>
<!-- Generator: Adobe Illustrator 23.0.0, SVG Export Plug-In . SVG Version: 6.00 Build 0)  -->
<svg version="1.1" id="Layer_1" xmlns="http://www.w3.org/2000/svg" xmlns:xlink="http://www.w3.org/1999/xlink" x="0px" y="0px"
	 width="54px" height="54px" viewBox="0 0 54 54" style="enable-background:new 0 0 54 54;" xml:space="preserve">
<style type="text/css">
	.st0{fill:#EF4135;}
</style>
<g>
	<path id="Path_294" class="st0" d="M44.5,36.3l-5.4-5.4c-0.7-0.7-1.7-1.1-2.7-1.1c-1.1,0-2.1,0.4-2.9,1.2l-2.1,2.1
		c-2.2-1.2-4.2-2.6-6-4.4c-1.7-1.8-3.2-3.8-4.4-6l2.1-2.1c1.6-1.5,1.6-4,0.1-5.6l-5.4-5.4c-0.7-0.7-1.7-1.1-2.7-1.1
		c-1,0-2.1,0.4-2.8,1.1c-1.9,1.7-3.2,4.1-3.6,6.6c-1.2,5.9,1.6,11.6,9.6,19.6c8.9,8.9,16.6,9.6,18.7,9.6c0.3,0,0.5,0,0.8,0
		c2.7-0.1,5.2-1.5,6.7-3.7C45.9,40.2,45.9,37.8,44.5,36.3z M42.7,40.3c-1.2,1.7-3.1,2.8-5.2,2.8c0,0-0.2,0-0.5,0
		c-1.9,0-8.8-0.6-17.1-9c-7.4-7.4-10-12.4-8.9-17.5c0.3-2,1.3-3.9,2.8-5.3l0.1-0.1l0.1-0.1c0.3-0.3,0.8-0.5,1.2-0.5
		c0.4,0,0.8,0.2,1.1,0.4l5.4,5.4c0.6,0.7,0.6,1.7-0.1,2.3l-2.4,2.4l0,0c-0.5,0.6-0.6,1.5-0.2,2.2c1.3,2.5,2.9,4.8,4.9,6.8
		c2,2,4.3,3.6,6.7,4.9c0.3,0.2,0.6,0.3,1,0.3c0.5,0,1-0.2,1.4-0.6l2.2-2.2c0.3-0.3,0.8-0.5,1.2-0.5c0.4,0,0.8,0.2,1.1,0.4l5.3,5.4
		C43.4,38.6,43.4,39.7,42.7,40.3L42.7,40.3z"/>
	<path id="Path_295" class="st0" d="M30.9,14.2c4.6,0.8,8.3,4.4,9,9c0.1,0.6,0.6,1,1.1,1c0,0,0.1,0,0.1,0c0.6-0.1,1.1-0.6,1-1.3
		c0,0,0,0,0,0c-0.9-5.7-5.3-10.2-11-11.1c-0.6-0.1-1.2,0.4-1.3,1C29.8,13.5,30.3,14.1,30.9,14.2L30.9,14.2z"/>
	<path id="Path_296" class="st0" d="M29.9,19c2.7,0.6,4.9,2.7,5.4,5.4c0.1,0.6,0.6,1,1.1,1c0,0,0.1,0,0.1,0c0.6-0.1,1.1-0.6,1-1.3
		c0,0,0,0,0,0c-0.7-3.8-3.6-6.8-7.4-7.5c-0.6-0.1-1.2,0.4-1.3,1C28.8,18.4,29.2,18.9,29.9,19L29.9,19z"/>
</g>
</svg>
