<?xml version="1.0" encoding="utf-8"?>
<!-- Generator: Adobe Illustrator 23.0.0, SVG Export Plug-In . SVG Version: 6.00 Build 0)  -->
<svg version="1.1" id="Layer_1" xmlns="http://www.w3.org/2000/svg" xmlns:xlink="http://www.w3.org/1999/xlink" x="0px" y="0px"
	 width="34px" height="34px" viewBox="0 0 34 34" style="enable-background:new 0 0 34 34;" xml:space="preserve">
<style type="text/css">
	.st0{fill:#E82012;}
	.st1{fill:#E11F11;}
</style>
<g id="_002-credit-card" transform="translate(0.25 0.25)">
	<g id="Group_771">
		<g>
			<path id="Path_1328_1_" class="st0" d="M32.9,25.9c-1.2-1.5-2.1-3.2-2.8-5c-0.2-0.5-0.4-1.3-0.6-2.1c-1.1-4-2.2-7.4-3.3-8.6
				c-1.2-1.2-6-2.1-7.9-2.3V3.4c0-1.6-1.3-3-3-3H3.4c-1.6,0-3,1.3-3,3v20.8c0,1.6,1.3,3,3,3h11.9c0.3,0,0.6-0.1,0.9-0.2
				c0.7,0.6,1.4,1.1,2.1,1.5c1.8,1,3.4,2.4,4.4,4.2c0.1,0.2,0.4,0.4,0.6,0.4c7.1,0,9.6-6.3,9.6-6.4C33.1,26.4,33.1,26.1,32.9,25.9z
				 M3.4,25.6c-0.8,0-1.5-0.7-1.5-1.5V3.4c0-0.8,0.7-1.5,1.5-1.5L3.4,25.6z M18.2,14.1l2.4,0.9c0.1,0.4,0.3,1.1,0.5,1.6
				c-0.1,0.2-0.2,0.3-0.2,0.5c-0.1,0.3-0.3,0.6-0.5,0.9c-0.9-0.8-1.6-1.8-2.1-2.8V14.1z M6.4,25.7H4.9V1.9h1.5V25.7z M7.8,25.7V1.9
				h7.4c0.8,0,1.5,0.7,1.5,1.5v8.9c-0.9-1.4-2.5-3-3.9-3.3c-0.7-0.2-1.3,0-1.8,0.5c-1.8,1.8-0.8,4.8,0.7,6.9
				c1.1,1.4,1.8,3.1,2.1,4.8c0,0.2,0,0.4,0,0.6c0,1.4,0.5,2.7,1.3,3.8L7.8,25.7z M23.8,31.6c-1.2-1.8-2.8-3.3-4.7-4.4
				c-1-0.5-1.8-1.2-2.5-2c-0.8-0.9-1.3-2.2-1.3-3.4c0-0.2,0-0.4,0-0.7c-0.4-2-1.2-3.9-2.4-5.5c-1.1-1.7-1.9-3.9-0.8-5
				c0.1-0.1,0.3-0.2,0.5-0.1c1.2,0.2,3,2.4,3.5,3.6c0.6,1.4,2.1,4.8,4.1,5.6c0.2,0.1,0.5,0.1,0.7-0.1c0.6-0.5,1.1-1.1,1.3-1.8
				c0.1-0.2,0.2-0.4,0.2-0.4c0.3-0.2,0.4-0.6,0.2-0.9c-0.3-0.7-0.5-1.4-0.7-2.1c-0.1-0.2-0.2-0.4-0.4-0.5l-3.2-1.3V9.5
				c2.7,0.4,6.2,1.2,6.9,1.9c1,1,2.2,5.3,2.9,7.9c0.2,0.9,0.5,1.6,0.6,2.1c0.7,1.8,1.6,3.5,2.8,5.1C30.1,29.5,27.1,31.4,23.8,31.6
				L23.8,31.6z"/>
			<path class="st1" d="M23.4,33.3c-0.4,0-0.7-0.2-0.9-0.5c-1-1.8-2.5-3.2-4.3-4.1c-0.7-0.4-1.4-0.9-2.1-1.5
				c-0.3,0.1-0.6,0.1-0.9,0.1H3.4c-1.8,0-3.2-1.4-3.2-3.2V3.4c0-1.8,1.4-3.2,3.2-3.2h11.9c1.8,0,3.2,1.4,3.2,3.2v4.3
				c2.5,0.4,6.7,1.2,7.9,2.4c1.2,1.2,2.2,4.5,3.4,8.7c0.2,0.8,0.4,1.6,0.6,2.1c0.7,1.7,1.6,3.4,2.8,4.9c0.2,0.3,0.3,0.6,0.1,1
				C33.1,27,30.6,33.3,23.4,33.3C23.4,33.3,23.4,33.3,23.4,33.3z M16.3,26.7l0.1,0.1c0.6,0.6,1.4,1.1,2.1,1.5c1.9,1,3.5,2.5,4.5,4.3
				c0.1,0.2,0.2,0.2,0.4,0.2c0,0,0,0,0,0c6.8,0,9.3-6,9.4-6.3c0.1-0.2,0-0.3-0.1-0.5l0,0c-1.2-1.5-2.2-3.2-2.9-5
				c-0.2-0.5-0.4-1.3-0.6-2.1c-1.1-4-2.1-7.4-3.2-8.5c-0.8-0.8-3.7-1.7-7.8-2.3l-0.2,0V3.4c0-1.5-1.2-2.7-2.7-2.7H3.4
				c-1.5,0-2.7,1.2-2.7,2.7v20.8c0,1.5,1.2,2.7,2.7,2.7h11.9c0.3,0,0.6-0.1,0.8-0.2L16.3,26.7z M23.7,31.8l-0.1-0.1
				c-1.1-1.8-2.8-3.3-4.6-4.3c-1-0.5-1.9-1.2-2.6-2.1c-0.9-1-1.4-2.3-1.4-3.6c0-0.2,0-0.4,0-0.6c-0.3-1.9-1.1-3.8-2.3-5.4
				c-1.2-1.8-2-4.1-0.8-5.3c0.2-0.2,0.5-0.3,0.7-0.2c1.2,0.2,3.2,2.5,3.7,3.7c0.6,1.4,2.1,4.7,4,5.5c0.2,0.1,0.3,0,0.5,0
				c0.6-0.4,1-1,1.2-1.7c0.1-0.1,0.1-0.3,0.1-0.3l0-0.1l0.1-0.1c0.2-0.1,0.3-0.4,0.2-0.6c-0.3-0.7-0.5-1.4-0.7-2.1
				c0-0.1-0.1-0.3-0.3-0.3L18,12.7V9.2l0.3,0c0.6,0.1,6,1,7,2c0.9,0.9,2,4.5,3,8c0.2,0.9,0.5,1.6,0.6,2.2c0.7,1.8,1.6,3.5,2.8,5
				l0.1,0.1l-0.1,0.1c-1.5,3.1-4.5,5.1-7.9,5.2L23.7,31.8z M12.4,10.7c-0.1,0-0.1,0-0.1,0.1c-0.9,0.9-0.3,3,0.9,4.7
				c1.2,1.7,2,3.6,2.4,5.6c0,0.3,0,0.5,0,0.7c0,1.2,0.4,2.4,1.2,3.3c0.7,0.8,1.5,1.5,2.4,1.9c1.9,1,3.6,2.5,4.7,4.3
				c3.1-0.2,5.8-2,7.2-4.8c-1.2-1.5-2.1-3.2-2.8-5c-0.2-0.5-0.4-1.3-0.6-2.2c-0.7-2.4-1.9-6.9-2.8-7.8c-0.6-0.6-3.6-1.3-6.5-1.8v2.6
				l3.1,1.2c0.3,0.1,0.5,0.4,0.6,0.7c0.2,0.7,0.4,1.4,0.7,2.1c0.2,0.4,0.1,0.9-0.3,1.2c0,0.1-0.1,0.2-0.2,0.3
				c-0.3,0.8-0.8,1.4-1.4,1.9c-0.3,0.2-0.6,0.2-0.9,0.1c-2-0.8-3.5-4-4.2-5.7c-0.4-1.1-2.3-3.2-3.3-3.4
				C12.5,10.7,12.4,10.7,12.4,10.7z M15.6,25.9l-8,0V1.7h7.7c1,0,1.7,0.8,1.7,1.7v9.7l-0.5-0.7c-0.9-1.4-2.5-2.9-3.7-3.1
				c-0.6-0.1-1.2,0-1.6,0.4c-1.7,1.7-0.7,4.6,0.7,6.6c1.1,1.5,1.8,3.2,2.1,4.9c0,0.2,0,0.4,0,0.5l0,0.1c0,1.3,0.5,2.6,1.2,3.6
				L15.6,25.9z M8.1,25.4l6.5,0c-0.7-1-1-2.3-1.1-3.5l0-0.1c0-0.2,0-0.3,0-0.5c-0.3-1.7-1-3.3-2.1-4.7C10,14.4,9,11.3,10.9,9.4
				c0.5-0.5,1.3-0.8,2.1-0.6c1.3,0.3,2.6,1.5,3.6,2.7V3.4c0-0.7-0.6-1.2-1.2-1.2H8.1V25.4z M6.6,25.9h-2V1.7h2V25.9z M5.1,25.4h1
				V2.2h-1V25.4z M3.6,25.9H3.4c-1,0-1.7-0.8-1.7-1.7V3.4c0-1,0.8-1.7,1.7-1.7l0.3,0V25.9z M3.1,2.2c-0.6,0.1-1,0.6-1,1.2v20.8
				c0,0.6,0.4,1.1,1,1.2V2.2z M20.4,18.4l-0.2-0.2c-0.9-0.8-1.7-1.8-2.2-2.9l0-0.1v-1.5l2.8,1.1l0,0.1c0.1,0.4,0.3,1.1,0.5,1.5
				l0,0.1l-0.1,0.1c-0.1,0.1-0.2,0.3-0.2,0.5c-0.1,0.4-0.3,0.7-0.5,1L20.4,18.4z M18.5,15.2c0.4,1,1.1,1.8,1.8,2.5
				c0.1-0.2,0.2-0.4,0.3-0.6c0.1-0.2,0.1-0.3,0.2-0.5c-0.2-0.4-0.3-1-0.4-1.4l-1.9-0.8V15.2z"/>
		</g>
	</g>
</g>
</svg>
