<?xml version="1.0" encoding="utf-8"?>
<!-- Generator: Adobe Illustrator 23.0.0, SVG Export Plug-In . SVG Version: 6.00 Build 0)  -->
<svg version="1.1" id="Layer_1" xmlns="http://www.w3.org/2000/svg" xmlns:xlink="http://www.w3.org/1999/xlink" x="0px" y="0px"
	 width="34px" height="34px" viewBox="0 0 34 34" style="enable-background:new 0 0 34 34;" xml:space="preserve">
<style type="text/css">
	.st0{fill:#E82012;}
</style>
<g id="_003-folder" transform="translate(0.5 0.5)">
	<g>
		<path id="Path_1329_1_" class="st0" d="M31.5,14.9h-1.9v-3.4c0-0.8-0.7-1.5-1.5-1.5h-1.8V8.6L26,8.4l0,0l-4-4l-4.3-4.2H4.5v6H1.6
			c-0.8,0-1.5,0.7-1.5,1.5v23.8l0,0c0,0.8,0.6,1.4,1.4,1.4c0,0,0,0,0,0h24.4c0.6,0,1.2-0.4,1.3-1l5.6-15.3v-0.1
			C32.9,15.7,32.4,15,31.5,14.9C31.5,14.9,31.5,14.9,31.5,14.9z M28.1,11c0.2,0,0.4,0.2,0.4,0.4v3.4h-2.2V11L28.1,11z M18.1,2
			l6.3,6.3h-6.3V2z M5.6,1.2H17v8.2h8.2v5.5H7.1c-0.1,0-0.2,0-0.2,0c-0.5,0.1-1,0.5-1.1,1l-0.2,0.4V1.2z M1.2,7.6
			c0-0.2,0.2-0.4,0.4-0.4l0,0h2.9v12l-3.3,8.9V7.6z M26.2,31.5c0,0.1-0.2,0.2-0.3,0.2H1.5c-0.1,0-0.2,0-0.2-0.1
			c-0.1-0.1-0.1-0.1-0.1-0.2l3.3-9l0,0l2.3-6.2l0,0C6.8,16,6.9,16,7.1,16h24.4c0.2,0,0.3,0.3,0.3,0.4L26.2,31.5z"/>
		<path class="st0" d="M26,33.4C26,33.4,25.9,33.4,26,33.4H1.5c-0.5,0-1-0.2-1.4-0.6s-0.5-0.8-0.5-1.3V7.6c0-1.1,0.9-2,2-2H4v-6h14
			l8.8,8.8v1h1.3c1.1,0,2,0.9,2,2v2.9l1.5,0c0.5,0.1,1,0.3,1.3,0.7c0.3,0.4,0.5,0.9,0.4,1.4l0,0.2L27.8,32
			C27.5,32.8,26.8,33.4,26,33.4z M1.6,6.6c-0.5,0-1,0.4-1,1v23.8c0,0.2,0.1,0.5,0.3,0.6c0.2,0.2,0.4,0.3,0.6,0.3h24.4c0,0,0,0,0,0
			c0.4,0,0.7-0.3,0.9-0.6l5.6-15.3c0-0.3,0-0.5-0.2-0.7c-0.2-0.2-0.4-0.3-0.6-0.4l0-0.5v0.5h-2.4v-3.9c0-0.5-0.4-1-1-1h-2.3V8.8
			l-8.2-8.2H5v6H1.6z M1.5,32.3c-0.2,0-0.5-0.1-0.6-0.3c-0.1-0.1-0.2-0.4-0.2-0.6l0-0.1l5.5-15.2c0.1-0.4,0.4-0.6,0.8-0.6
			c0,0,0,0,0,0h24.4c0.3,0,0.7,0.2,0.8,0.9l0,0.1l0,0.1l-5.5,15.1c-0.1,0.3-0.4,0.6-0.8,0.6c0,0,0,0,0,0H1.5
			C1.5,32.3,1.5,32.3,1.5,32.3z M1.5,31.3C1.5,31.3,1.5,31.3,1.5,31.3L1.5,31.3C1.5,31.3,1.5,31.3,1.5,31.3z M7.2,16.5L1.8,31.3h24
			l5.4-14.8H7.2z M25.9,31.3C25.9,31.3,25.9,31.3,25.9,31.3L25.9,31.3C25.9,31.3,25.9,31.3,25.9,31.3z M7.1,16.5
			C7.1,16.5,7.1,16.5,7.1,16.5C7.1,16.5,7.1,16.5,7.1,16.5L7.1,16.5z M7.3,16.3L7.3,16.3C7.3,16.3,7.3,16.3,7.3,16.3z M1.7,28.3
			l-1-0.2V7.6c0-0.5,0.4-0.9,0.9-0.9H5l0,12.7L1.7,28.3z M1.7,7.7v17.6L4,19.2V7.7H1.7z M6.1,16.4l-1-0.2V0.7h12.5v8.2h8.2v6.5H7.1
			c0,0-0.1,0-0.1,0c-0.3,0.1-0.6,0.3-0.7,0.6L6.1,16.4z M6.1,1.7v12.9c0.2-0.1,0.4-0.2,0.7-0.2c0.1,0,0.2,0,0.3,0h17.6V9.9h-8.2V1.7
			H6.1z M29,15.4h-3.2v-4.8l2.3,0c0.5,0,0.9,0.4,0.9,0.9V15.4z M26.8,14.4H28v-2.8l-1.2,0V14.4z M25.7,8.8h-8v-8L25.7,8.8z
			 M18.6,7.8h4.6l-4.6-4.6V7.8z"/>
	</g>
	<g>
		<path id="Path_1330_1_" class="st0" d="M8.9,9.4h5.5c0.3,0,0.5-0.2,0.5-0.5s-0.2-0.5-0.5-0.5H8.9c-0.3,0-0.5,0.2-0.5,0.5
			S8.6,9.4,8.9,9.4L8.9,9.4z"/>
		<path class="st0" d="M14.3,9.9H8.9c-0.6,0-1-0.5-1-1s0.5-1,1-1h5.5c0.6,0,1,0.5,1,1S14.9,9.9,14.3,9.9z M8.9,8.8L8.9,8.8l5.5,0.1
			L8.9,8.8z"/>
	</g>
	<g>
		<path id="Path_1331_1_" class="st0" d="M8.9,5.6h5.5c0.3,0,0.5-0.2,0.5-0.5s-0.2-0.5-0.5-0.5H8.9C8.6,4.5,8.3,4.7,8.3,5
			S8.6,5.6,8.9,5.6L8.9,5.6z"/>
		<path class="st0" d="M14.3,6.1H8.9c-0.6,0-1-0.5-1-1s0.5-1,1-1h5.5c0.6,0,1,0.5,1,1S14.9,6.1,14.3,6.1z M8.9,5L8.9,5l5.5,0.1
			L8.9,5z"/>
	</g>
	<g>
		<path id="Path_1332_1_" class="st0" d="M8.9,13.2H22c0.3,0,0.5-0.2,0.5-0.5s-0.2-0.5-0.5-0.5H8.9c-0.3,0-0.5,0.2-0.5,0.5
			S8.6,13.2,8.9,13.2L8.9,13.2z"/>
		<path class="st0" d="M22,13.7H8.9c-0.6,0-1-0.5-1-1s0.5-1,1-1H22c0.6,0,1,0.5,1,1S22.5,13.7,22,13.7z M8.9,12.6L8.9,12.6L22,12.7
			L8.9,12.6z"/>
	</g>
</g>
</svg>
