<svg xmlns="http://www.w3.org/2000/svg" viewBox="0 0 39.172 35.859">
  <defs>
    <style>
      .cls-1 {
        fill: #e82012;
      }
    </style>
  </defs>
  <g id="Group_800" data-name="Group 800" transform="translate(-0.019 0.1)">
    <path id="Path_1388" data-name="Path 1388" class="cls-1" d="M18.507,25.274V10.647c.052-2.883,1.573-8.388,6.763-8.388a.842.842,0,0,1,.839.891.828.828,0,0,1-.839.839c-3.827,0-4.981,4.194-5.033,6.711V25.065a6.309,6.309,0,0,0,1.206-.577c.315-.157.682-.367,1.1-.577V19.56h8.65v3.984a17.985,17.985,0,0,1,1.992.944,1.1,1.1,0,0,1,.315.21v-14c.052-2.883,1.573-8.388,6.763-8.388A.842.842,0,0,1,41.1,3.2a.828.828,0,0,1-.839.839c-3.827,0-4.981,4.194-5.033,6.711V25.327c.21,0,.419.052.682.052a4.1,4.1,0,0,0,1.625-.367V10.8c0-.052.157-4.4,2.726-4.4a3.166,3.166,0,0,0,3.146-3.2A3.2,3.2,0,0,0,40.264,0c-6.973-.052-9.017,6.92-9.07,10.643v.419h-8.65V10.7c0-.157.157-4.4,2.726-4.4a3.166,3.166,0,0,0,3.146-3.2A3.2,3.2,0,0,0,25.27-.1C18.3-.048,16.252,6.925,16.2,10.647V24.54h0A5.645,5.645,0,0,0,18.507,25.274Zm12.687-11.9V17.2h-8.65V13.374h8.65Z" transform="translate(-7.698)"/>
    <path id="Path_1389" data-name="Path 1389" class="cls-1" d="M38.7,49.592c-3.408-2.307-5.347-1.363-7.13-.524a7.4,7.4,0,0,1-3.355.944,6.42,6.42,0,0,1-3.722-1.049A8.866,8.866,0,0,0,19.616,47.6a8.866,8.866,0,0,0-4.876,1.363,6.42,6.42,0,0,1-3.722,1.049,7.214,7.214,0,0,1-3.355-.944c-1.73-.839-3.722-1.73-7.13.524a1.171,1.171,0,0,0,1.311,1.94c2.307-1.573,3.25-1.1,4.823-.367a9.38,9.38,0,0,0,4.351,1.153,8.866,8.866,0,0,0,4.876-1.363,6.42,6.42,0,0,1,3.722-1.049,6.42,6.42,0,0,1,3.722,1.049,8.866,8.866,0,0,0,4.876,1.363,9.57,9.57,0,0,0,4.351-1.153c1.573-.734,2.569-1.206,4.823.367a1.179,1.179,0,0,0,1.625-.315A1.23,1.23,0,0,0,38.7,49.592Z" transform="translate(0 -22.693)"/>
    <path id="Path_1390" data-name="Path 1390" class="cls-1" d="M38.07,61.763a5.9,5.9,0,0,0-5.452-.052,5.406,5.406,0,0,1-2.149.524,5.153,5.153,0,0,1-2.621-.786,7.441,7.441,0,0,0-3.67-1.049,7.1,7.1,0,0,0-3.67,1.049,5.153,5.153,0,0,1-2.621.786,5.639,5.639,0,0,1-2.149-.524,5.883,5.883,0,0,0-5.452.052,1.15,1.15,0,1,0,.944,2.1,3.665,3.665,0,0,1,3.617-.052,6.818,6.818,0,0,0,6.711-.315,4.762,4.762,0,0,1,5.243,0,7.441,7.441,0,0,0,3.67,1.049,7.606,7.606,0,0,0,3.041-.734,3.53,3.53,0,0,1,3.617.052,1.15,1.15,0,0,0,.944-2.1Z" transform="translate(-4.561 -28.782)"/>
  </g>
</svg>
