<svg id="Group_799" data-name="Group 799" xmlns="http://www.w3.org/2000/svg" viewBox="0 0 40.776 39.9">
  <defs>
    <style>
      .cls-1 {
        fill: #e82012;
      }
    </style>
  </defs>
  <path id="Path_674" data-name="Path 674" class="cls-1" d="M162.728,10.283l7.645,4.413a.836.836,0,0,0,.432.114.867.867,0,0,0,.75-.432l4.256-7.369,2.905,5.031-2,1.156a.868.868,0,0,0,.436,1.618h8.767a.864.864,0,0,0,.75-.432l4.383-7.589a.867.867,0,0,0-1.182-1.186l-2,1.156-2.38-4.121A5.294,5.294,0,0,0,180.906,0h-10.19a.174.174,0,0,0-.047,0,5.272,5.272,0,0,0-4.4,2.414c-.013.021-.025.042-.038.068l-.195.339c-.013.021-.025.042-.038.068L162.411,9.1a.868.868,0,0,0-.085.656A.853.853,0,0,0,162.728,10.283ZM182.68,2.207a3.566,3.566,0,0,1,1.3,1.3l2.812,4.875a.864.864,0,0,0,1.139.339l-2.52,4.362h-5.036a.849.849,0,0,0,.36-.5.868.868,0,0,0-.085-.656l-5.239-9.059-.237-.415c-.008-.013-.017-.03-.025-.042a5.734,5.734,0,0,0-.517-.669h6.277A3.517,3.517,0,0,1,182.68,2.207ZM167.523,3.719c.008-.017.021-.038.03-.055l.191-.33a3.544,3.544,0,0,1,2.969-1.6h.038a3.561,3.561,0,0,1,2.939,1.6l1.127,1.948-4.328,7.488-6.145-3.549Z" transform="translate(-155.423 0)"/>
  <path id="Path_675" data-name="Path 675" class="cls-1" d="M481.668,316.016a.78.78,0,0,0-.047-.08l-.178-.313c-.013-.021-.021-.038-.034-.059l-3.6-6.234a.868.868,0,0,0-1.182-.318l-7.645,4.417a.868.868,0,0,0-.318,1.182l4.252,7.369h-5.811v-2.312a.868.868,0,0,0-1.618-.436l-4.375,7.594a.873.873,0,0,0,0,.864l4.379,7.594a.866.866,0,0,0,.75.432.818.818,0,0,0,.224-.03.87.87,0,0,0,.644-.839v-2.312h4.76a5.291,5.291,0,0,0,4.574-2.639l5.095-8.822h0c0-.009.008-.013.008-.021A5.262,5.262,0,0,0,481.668,316.016ZM470.6,314.491l6.145-3.549,3.176,5.5h0a.032.032,0,0,1,.008.017,0,0,0,0,0,0,0l.212.364s0,0,0,.008a3.535,3.535,0,0,1-.106,3.363l0,.008a3.543,3.543,0,0,1-2.863,1.762h-2.253Zm4.345,14.539a3.61,3.61,0,0,1-1.3,1.3,3.553,3.553,0,0,1-1.77.474h-5.633a.864.864,0,0,0-.864.813l-2.516-4.362,2.516-4.362a.847.847,0,0,0,.254.559.868.868,0,0,0,.614.254h11a5.473,5.473,0,0,0,.839-.114l-1.864,3.227h0Z" transform="translate(-441.476 -295.814)"/>
  <path id="Path_676" data-name="Path 676" class="cls-1" d="M17.839,321.983H9.326l2.905-5.031,2,1.156a.867.867,0,0,0,1.186-1.182l-4.383-7.594a.87.87,0,0,0-.75-.432H1.516a.857.857,0,0,0-.834.644.866.866,0,0,0,.4.974l2,1.156L.7,315.8a5.281,5.281,0,0,0,0,5.273l3.015,5.222L5.806,329.9a5.278,5.278,0,0,0,4.311,2.639h7.721a.883.883,0,0,0,.614-.254.868.868,0,0,0,.254-.614v-8.826A.871.871,0,0,0,17.839,321.983ZM2.207,316.659l2.812-4.875a.871.871,0,0,0-.271-1.156H9.783l2.52,4.362a.862.862,0,0,0-1.135.339L5.929,324.4l-.241.415a.2.2,0,0,0-.021.042,5,5,0,0,0-.322.784l-1.863-3.227h0l-1.275-2.207a3.557,3.557,0,0,1,0-3.549Zm14.764,14.15H10.181a3.553,3.553,0,0,1-2.876-1.766.015.015,0,0,0,0-.008,3.56,3.56,0,0,1-.1-3.375l1.127-1.948H16.97v7.1Z" transform="translate(0 -295.817)"/>
</svg>
