<svg xmlns="http://www.w3.org/2000/svg" viewBox="0 0 35.548 37.961">
  <defs>
    <style>
      .cls-1 {
        fill: #e82012;
        fill-rule: evenodd;
      }
    </style>
  </defs>
  <path id="Path_1385" data-name="Path 1385" class="cls-1" d="M16.892,35.92V26.174a1.021,1.021,0,0,1,2.042,0V35.92h2.784V24.5a2.8,2.8,0,0,1-.743-1.578H14.85a2.8,2.8,0,0,1-.743,1.578V35.92Zm15.779-12.53a.954.954,0,0,0,1.021-.928V14.386A2.875,2.875,0,0,0,31.464,11.6l-1.856-.464a1,1,0,0,1,.464-1.949l1.856.464a4.875,4.875,0,0,1,3.62,4.734v8.075a2.855,2.855,0,0,1-3.156,2.877V36.848a1.03,1.03,0,0,1-1.021,1.021H25.617a1.021,1.021,0,1,1,0-2.042h4.734V24.5a2.944,2.944,0,0,1-.835-2.042V14.386a1.021,1.021,0,1,1,2.042,0v8.075a1.177,1.177,0,0,0,1.114.928Zm-29.7,0a.954.954,0,0,0,1.021-.928V14.386a1.021,1.021,0,1,1,2.042,0v8.075A2.776,2.776,0,0,1,5.2,24.5V35.92H9.931a1.021,1.021,0,1,1,0,2.042H4.084a1.03,1.03,0,0,1-1.021-1.021v-11.6A2.826,2.826,0,0,1,0,22.461V14.386A4.985,4.985,0,0,1,3.62,9.56L5.476,9.1a1,1,0,0,1,.464,1.949l-1.856.464a2.956,2.956,0,0,0-2.228,2.784v8.075A1.107,1.107,0,0,0,2.97,23.389ZM30.722,6.776a.956.956,0,1,1-1.671-.928,3.021,3.021,0,0,0,.371-1.3,2.594,2.594,0,0,0-2.6-2.6,2.948,2.948,0,0,0-1.856.743,1.009,1.009,0,0,1-1.392,0,1.009,1.009,0,0,1,0-1.392A4.638,4.638,0,0,1,26.824,0a4.555,4.555,0,0,1,4.548,4.548,4.469,4.469,0,0,1-.65,2.228ZM6.683,5.847a.918.918,0,0,1-.371,1.3,1.048,1.048,0,0,1-1.392-.371,4.409,4.409,0,0,1-.557-2.228A4.555,4.555,0,0,1,8.91,0a4.806,4.806,0,0,1,3.249,1.3,1.009,1.009,0,0,1,0,1.392,1.009,1.009,0,0,1-1.392,0A2.625,2.625,0,0,0,6.311,4.548a2.131,2.131,0,0,0,.371,1.3Zm8.91,0a.918.918,0,0,1-.371,1.3.939.939,0,0,1-1.3-.371,4.765,4.765,0,0,1-.65-2.228,4.548,4.548,0,0,1,9.1,0,3.7,3.7,0,0,1-.65,2.228.918.918,0,0,1-1.3.371.939.939,0,0,1-.371-1.3,2.131,2.131,0,0,0,.371-1.3,2.6,2.6,0,1,0-5.2,0,3.021,3.021,0,0,0,.371,1.3Zm7.982,19.491V36.848a1.03,1.03,0,0,1-1.021,1.021H13.087a1.03,1.03,0,0,1-1.021-1.021V25.339A2.9,2.9,0,0,1,8.91,22.461V14.386a4.875,4.875,0,0,1,3.62-4.734l1.856-.464a1.047,1.047,0,0,1,1.021.278l2.32,2.32,2.413-2.413A1.047,1.047,0,0,1,21.162,9.1l1.856.464a4.875,4.875,0,0,1,3.62,4.734v8.075a2.759,2.759,0,0,1-3.063,2.97ZM11.88,23.389a.954.954,0,0,1-1.021-.928V14.386A2.875,2.875,0,0,1,13.087,11.6l1.3-.371L16.8,13.644v7.425H14.85v-6.59a1.021,1.021,0,1,0-2.042,0v8.075c.093.464-.278.835-.928.835Zm11.88,0a.954.954,0,0,1-1.021-.928V14.386a1.021,1.021,0,1,0-2.042,0v6.59H18.749V13.551l2.413-2.413,1.3.371a2.956,2.956,0,0,1,2.228,2.784v8.075A.863.863,0,0,1,23.761,23.389Z"/>
</svg>
