<?xml version="1.0" encoding="utf-8"?>
<!-- Generator: Adobe Illustrator 28.1.0, SVG Export Plug-In . SVG Version: 6.00 Build 0)  -->
<svg version="1.1" id="Layer_1" xmlns="http://www.w3.org/2000/svg" xmlns:xlink="http://www.w3.org/1999/xlink" x="0px" y="0px"
	 width="28.3px" height="28.3px" viewBox="0 0 28.3 28.3" style="enable-background:new 0 0 28.3 28.3;" xml:space="preserve">
<style type="text/css">
	.st0{fill:#000000;}
</style>
<g>
	<polygon class="st0" points="14.3,13.1 10.9,8.2 9.1,8.2 13.3,14.2 13.8,15 17.4,20.2 19.2,20.2 14.8,13.8 	"/>
	<path class="st0" d="M25.8,0H2.5C1.1,0,0,1.1,0,2.5v23.4c0,1.4,1.1,2.5,2.5,2.5h23.4c1.4,0,2.5-1.1,2.5-2.5V2.5
		C28.3,1.1,27.2,0,25.8,0z M16.9,21l-3.7-5.3L8.6,21H7.4l5.2-6.1L7.4,7.3h4.1l3.4,5l4.3-5h1.2l-5,5.8l5.4,7.9H16.9z"/>
</g>
</svg>
