<svg xmlns="http://www.w3.org/2000/svg" xmlns:xlink="http://www.w3.org/1999/xlink" viewBox="0 0 26.87 26.87">
  <defs>
    <style>
      .cls-1 {
        fill: rgba(113,85,85,0.17);
      }

      .cls-2 {
        clip-path: url(#clip-path);
      }

      .cls-3 {
        fill: url(#radial-gradient);
      }

      .cls-4 {
        fill: url(#radial-gradient-2);
      }

      .cls-5 {
        fill: #fff;
      }
    </style>
    <clipPath id="clip-path">
      <rect id="Rectangle_182" data-name="Rectangle 182" class="cls-1" width="26.87" height="26.87" rx="3"/>
    </clipPath>
    <radialGradient id="radial-gradient" cx="7.95" cy="28.201" r="27.435" gradientTransform="translate(-0.044 -0.314) scale(1.006 1.011)" gradientUnits="userSpaceOnUse">
      <stop offset="0" stop-color="#fd5"/>
      <stop offset="0.1" stop-color="#fd5"/>
      <stop offset="0.5" stop-color="#ff543e"/>
      <stop offset="1" stop-color="#c837ab"/>
    </radialGradient>
    <radialGradient id="radial-gradient-2" cx="0.035" cy="-0.909" r="16.797" gradientTransform="matrix(-0.185, -0.988, 2.192, -0.41, 2.035, -1.247)" gradientUnits="userSpaceOnUse">
      <stop offset="0" stop-color="#3771c8"/>
      <stop offset="0.13" stop-color="#3771c8"/>
      <stop offset="1" stop-color="#60f" stop-opacity="0"/>
    </radialGradient>
  </defs>
  <g id="Group_813" data-name="Group 813" transform="translate(-68 -126)">
    <g id="Mask_Group_22" data-name="Mask Group 22" class="cls-2" transform="translate(68 126)">
      <g id="icon-instagram_60-64" transform="translate(-0.488 -0.975)">
        <path id="Path_414" data-name="Path 414" class="cls-3" d="M28,0V28.157H0V0H28"/>
        <path id="Path_415" data-name="Path 415" class="cls-4" d="M28,2.068V25.957a2.575,2.575,0,0,1-2.427,2.2H2.427A2.486,2.486,0,0,1,0,25.737V0H28Z"/>
      </g>
    </g>
    <g id="Group_286" data-name="Group 286" transform="translate(71.839 129.839)">
      <path id="Path_437" data-name="Path 437" class="cls-5" d="M12.211,7.2a5.011,5.011,0,1,0,5.011,5.011A5.009,5.009,0,0,0,12.211,7.2Zm0,8.242a3.231,3.231,0,1,1,3.231-3.231,3.236,3.236,0,0,1-3.231,3.231Z" transform="translate(-2.452 -2.452)"/>
      <ellipse id="Ellipse_42" data-name="Ellipse 42" class="cls-5" cx="1.187" cy="1.187" rx="1.187" ry="1.187" transform="translate(13.781 3.363)"/>
      <path id="Path_438" data-name="Path 438" class="cls-5" d="M18.991,3.363A4.816,4.816,0,0,0,16.155.528,7.231,7.231,0,0,0,13.781.066C12.726,0,12.4,0,9.759,0S6.792,0,5.737.066A7.576,7.576,0,0,0,3.363.528,4.816,4.816,0,0,0,.528,3.363,5.861,5.861,0,0,0,.066,5.737C0,6.792,0,7.121,0,9.759s0,2.967.066,4.022a7.576,7.576,0,0,0,.462,2.374,4.816,4.816,0,0,0,2.835,2.835,7.231,7.231,0,0,0,2.374.462c1.055.066,1.385.066,4.022.066s2.967,0,4.022-.066a7.576,7.576,0,0,0,2.374-.462,4.816,4.816,0,0,0,2.835-2.835,7.231,7.231,0,0,0,.462-2.374c.066-1.055.066-1.385.066-4.022s0-2.967-.066-4.022A7.576,7.576,0,0,0,18.991,3.363ZM17.672,13.715a6.056,6.056,0,0,1-.33,1.846A3.186,3.186,0,0,1,15.5,17.408a5.653,5.653,0,0,1-1.78.33c-1.055.066-1.319.066-3.956.066s-2.9,0-3.956-.066a5.33,5.33,0,0,1-1.78-.33,3.186,3.186,0,0,1-1.846-1.846,5.653,5.653,0,0,1-.33-1.78c-.066-1.055-.066-1.319-.066-3.956s0-2.9.066-3.956a6.056,6.056,0,0,1,.33-1.846A2.87,2.87,0,0,1,3.956,2.11a5.654,5.654,0,0,1,1.78-.33c1.055-.066,1.319-.066,3.956-.066s2.9,0,3.956.066a5.33,5.33,0,0,1,1.78.33,3.186,3.186,0,0,1,1.846,1.846,5.653,5.653,0,0,1,.33,1.78c.066,1.055.066,1.319.066,3.956s.066,2.967,0,4.022Z"/>
    </g>
  </g>
</svg>
