<?xml version="1.0" encoding="utf-8"?>
<!-- Generator: Adobe Illustrator 23.0.1, SVG Export Plug-In . SVG Version: 6.00 Build 0)  -->
<svg version="1.1" id="Layer_1" xmlns="http://www.w3.org/2000/svg" xmlns:xlink="http://www.w3.org/1999/xlink" x="0px" y="0px"
	 width="264.2px" height="73.1px" viewBox="0 0 264.2 73.1" style="enable-background:new 0 0 264.2 73.1;" xml:space="preserve">
<g id="Group_451" transform="translate(-211 19)">
	<g id="Group_450" transform="translate(211 -19)">
		<g id="Group_448">
			<path id="Path_649" d="M130.5,36.9c-1.9,0-3.8,0.1-5.7,0.2H143c-1.9-0.1-3.8-0.1-5.7-0.2H130.5"/>
			<path id="Path_650" d="M130.5,36.9h3.4C132.8,36.9,131.7,36.9,130.5,36.9"/>
			<rect id="Rectangle_707" x="0.5" y="67.3" width="259.9" height="0.5"/>
			<path id="Path_651" d="M261,71.8H0v1.3h261.5v-1.3H261z"/>
			<path id="Path_652" d="M139.5,20.4"/>
			<path id="Path_653" d="M139.5,20.4"/>
			<path id="Path_654" d="M16.7,29c0.8,0.1,1.5,0.3,2.2,0.6c1,0.5,1.9,1.3,2.4,2.4c0.6,1.4,0.9,2.9,0.9,4.4c0,2.7-0.7,4.7-2.1,5.8
				c-1,0.8-2.2,1.3-3.4,1.5v1.8c1.8,0.1,3.5,0.8,4.9,1.9C23.2,48.8,24,51,24,54c0,2.9-0.7,5.1-2.1,6.6c-1.4,1.3-3.3,2.1-5.2,2.1v1.3
				c2-0.1,3.9-0.3,5.8-0.7c2-0.5,3.8-1.6,5.2-3.2c1.3-1.6,2-3.7,2-5.8c0-2.5-1.1-4.9-3-6.5c-2-1.7-5-2.7-9.1-3.1
				c2.7-0.2,5.4-1.2,7.6-2.9c1.6-1.4,2.6-3.5,2.5-5.7c0-4.9-3.7-7.7-11.1-8.4v1.4 M6.4,27.7l-5.9,0.2v1.2h0.7
				c1.2-0.1,2.4,0.1,3.5,0.5c0.6,0.4,1,1,1,1.8C5.9,33.2,6,35.1,6,37v17.6c0,1.9,0,3.9-0.2,5.8c-0.1,0.7-0.5,1.4-1.2,1.8
				c-1,0.5-2.1,0.7-3.2,0.6H0.1V64h14c0.9,0,1.8,0,2.6-0.1v-1.3c-0.4,0.1-0.8,0.1-1.2,0.1c-1.6,0-2.7-0.2-3.2-0.7
				c-0.6-0.5-1-1.3-1-2.1c-0.1-1-0.2-3.1-0.2-6.6v-8c0.7-0.1,1.4-0.1,2-0.1c1.2,0,2.4,0.1,3.5,0.2v-1.8c-1.4,0.3-2.9,0.4-4.4,0.4
				c-0.4,0-0.7,0-1.1-0.1V28.9c0.7,0,1.4-0.1,2.1-0.1c1.1,0,2.3,0.1,3.4,0.2v-1.4c-1.2-0.1-2.4-0.1-3.6-0.1L6.4,27.7"/>
			<path id="Path_655" d="M47.6,63.6L47.6,63.6l0.1-0.9h-0.1V63.6z M47.6,37.5c1.2,0.1,2.4,0.6,3.2,1.5c1,1.3,1.5,2.9,1.4,4.6
				c0,0.9-0.1,1.8-0.4,2.7c-0.2,0.7-0.6,1.3-1.2,1.8c-0.5,0.5-1.2,0.8-1.9,1c-0.4,0.1-0.8,0.2-1.2,0.2v3.7c0.9,1.1,1.8,2.2,2.6,3.4
				c2.6,3.8,4.6,6.2,5.9,7.1h7.2v-0.9c-1.5,0-2.9-0.5-4.1-1.3c-1.8-1.6-3.4-3.4-4.8-5.4c-2.5-3.4-4.3-5.3-5.4-5.9
				c2.1-0.1,4.1-1,5.7-2.3c1.3-1.2,2-2.8,1.9-4.5c0-1.5-0.5-2.9-1.5-3.9c-1.1-1.1-2.4-1.9-3.9-2.4c-1.2-0.3-2.4-0.5-3.6-0.6
				L47.6,37.5 M38.9,36.4l-3.8,0.2v0.9h0.4c0.9-0.1,1.8,0,2.7,0.4c0.4,0.3,0.7,0.8,0.8,1.3c0.2,1.4,0.2,2.8,0.2,4.2v13.2
				c0,1.4,0,2.9-0.2,4.3c-0.1,0.6-0.4,1.1-0.9,1.4c-0.7,0.4-1.6,0.5-2.4,0.4h-0.9v0.9h12.8v-0.9h-1.2c-0.9,0.1-1.7-0.1-2.5-0.5
				c-0.4-0.4-0.7-0.9-0.8-1.5c-0.2-1.4-0.2-2.8-0.2-4.2v-6h1.1c0.6,0,1.1,0.1,1.6,0.4c0.7,0.6,1.3,1.3,1.9,2.1l0.1,0.1v-3.7
				c-0.5,0.1-1,0.1-1.6,0.2c-1,0.1-2.1,0.1-3.1,0.1V37.3c0.7-0.1,1.2-0.1,1.7-0.1c1,0,2,0.1,2.9,0.2v-1.2c-0.8-0.1-1.7-0.1-2.7-0.1
				C43.4,36.2,41.4,36.3,38.9,36.4"/>
			<path id="Path_656" d="M75.8,41.3L75.8,41.3 M69.2,55c-0.5,1.3-0.9,2.1-1,2.3c-0.5,1.5-1.2,2.9-2.1,4.1c-0.7,0.7-1.7,1.2-2.7,1.3
				v0.9h8v-0.9c-0.8,0-1.5-0.2-2.1-0.6c-0.5-0.4-0.8-1.1-0.8-1.8c0.3-1.7,0.8-3.3,1.5-4.9l0.7-1.8h5.1v-0.9h-4.8l4.7-11.5v-2.4
				L69.2,55 M77,36.2l-1.1,2.7v2.4l4.8,11.4h-4.8v0.9H81l2.1,5c0.4,0.8,0.7,1.7,0.9,2.6c0.1,0.5-0.2,1-0.7,1.2
				c-0.8,0.2-1.7,0.3-2.6,0.3v0.9h10.6v-0.9c-0.7,0-1.5-0.3-2.1-0.7c-0.5-0.4-0.9-0.9-1.2-1.5l-1.2-2.8l-9-21.5H77"/>
			<path id="Path_657" d="M122.6,36.6l-0.2,6.5h0.9c0.2-1.3,0.6-2.6,1.2-3.8c0.3-0.7,0.9-1.2,1.6-1.5c1.2-0.2,2.3-0.3,3.5-0.2h4v19
				c0,1.4,0,2.9-0.2,4.3c-0.1,0.6-0.4,1.1-0.9,1.4c-0.7,0.4-1.6,0.5-2.4,0.4h-1.4v0.9h13.4v-0.9H141c-0.9,0.1-1.7-0.1-2.5-0.5
				c-0.4-0.4-0.7-0.9-0.8-1.5c-0.2-1.4-0.2-2.8-0.2-4.1V37.6h4.3c1.1,0,2.1,0.1,3.2,0.2c0.7,0.3,1.3,0.8,1.7,1.5
				c0.7,1.2,1.1,2.5,1.2,3.8h0.9l-0.1-6.5L122.6,36.6"/>
			<path id="Path_658" d="M151,36.6v0.9h0.5c0.9-0.1,1.8,0,2.7,0.4c0.4,0.3,0.7,0.8,0.8,1.3c0.2,1.4,0.2,2.8,0.2,4.2v13.2
				c0,1.4,0,2.9-0.2,4.3c-0.1,0.6-0.4,1.1-0.9,1.4c-0.7,0.4-1.6,0.5-2.4,0.4h-0.8v0.9h12.5v-0.9h-0.9c-0.9,0.1-1.7-0.1-2.5-0.5
				c-0.5-0.3-0.8-0.9-0.8-1.5c-0.2-1.4-0.2-2.8-0.2-4.2v-6.7h2.5c0.9-0.1,1.8,0.1,2.7,0.4c0.5,0.3,0.9,0.8,1,1.4
				c0.2,0.9,0.3,1.8,0.3,2.7h1v-9.5h-1c0,1.6-0.2,2.8-0.8,3.3s-1.6,0.8-3.3,0.8H159V37.6h5.3c1.2-0.1,2.4,0.1,3.6,0.4
				c0.9,0.4,1.6,1,2,1.8c0.7,1.1,1.1,2.3,1.2,3.6h1l-0.2-6.7H151"/>
			<path id="Path_659" d="M188.9,36.1c-3.8-0.1-7.5,1.2-10.4,3.8c-2.8,2.6-4.3,6.2-4.1,10c-0.2,3.9,1.3,7.6,4.1,10.3
				c2.8,2.6,6.6,4,10.5,3.9v-1c-3.3-0.1-5.8-1.2-7.5-3.3c-1.8-2.2-2.6-5.4-2.6-9.8c0-4.3,0.9-7.5,2.6-9.7c1.7-2.2,4.2-3.3,7.5-3.3
				h0.1v-1L188.9,36.1 M188.9,37.1c3.3,0.1,5.8,1.2,7.5,3.3c1.8,2.2,2.6,5.5,2.6,9.6c0,4.3-0.9,7.5-2.7,9.7
				c-1.7,2.2-4.4,3.4-7.2,3.3h-0.2v1c3.9,0.2,7.8-1.2,10.6-3.9c2.7-2.7,4.2-6.4,4-10.1c0-4.3-1.4-7.7-4.2-10.2
				c-2.9-2.5-6.6-3.8-10.5-3.7V37.1"/>
			<path id="Path_660" d="M219.5,63.6L219.5,63.6l0.1-0.9h-0.1V63.6z M219.5,37.5c1.2,0.1,2.4,0.6,3.2,1.5c1,1.3,1.5,2.9,1.4,4.6
				c0,0.9-0.1,1.9-0.4,2.7c-0.2,0.7-0.6,1.3-1.2,1.8c-0.5,0.5-1.2,0.9-1.9,1c-0.4,0.1-0.8,0.2-1.2,0.2v3.7c0.9,1.1,1.8,2.2,2.6,3.4
				c2.7,3.8,4.6,6.2,5.9,7.1h7.3v-0.9c-1.5,0-2.9-0.5-4.1-1.3c-1.8-1.6-3.4-3.4-4.8-5.4c-2.5-3.4-4.3-5.3-5.4-5.9
				c2.1-0.1,4.1-1,5.7-2.3c1.3-1.1,2-2.8,1.9-4.5c0-1.5-0.5-2.9-1.5-3.9c-1.1-1.1-2.4-2-3.9-2.4c-1.2-0.3-2.4-0.5-3.6-0.6
				L219.5,37.5 M210.7,36.4l-3.9,0.2v0.9h0.5c0.9-0.1,1.8,0,2.7,0.4c0.4,0.3,0.7,0.8,0.8,1.3c0.2,1.4,0.2,2.8,0.2,4.2v13.2
				c0,1.4,0,2.9-0.2,4.3c-0.1,0.6-0.4,1.1-0.9,1.4c-0.7,0.4-1.6,0.5-2.4,0.4h-0.9v0.9h12.8v-0.9h-1.2c-0.8,0.1-1.7-0.1-2.4-0.5
				c-0.4-0.4-0.7-0.9-0.8-1.5c-0.2-1.4-0.2-2.8-0.2-4.2v-6h1.1c0.6,0,1.1,0.1,1.6,0.4c0.7,0.6,1.3,1.3,1.9,2.1l0.1,0.1v-3.7
				c-0.5,0.1-1,0.1-1.6,0.2c-1,0.1-2.1,0.1-3.1,0.1V37.3c0.6-0.1,1.2-0.1,1.7-0.1c1,0,2,0.1,2.9,0.2v-1.2c-0.8-0.1-1.7-0.1-2.7-0.1
				C215.4,36.2,213.3,36.3,210.7,36.4"/>
			<path id="Path_661" d="M252.1,37.7l0.6,0.2c1.4,0.4,2.7,1.2,3.6,2.3c1.2,1.2,2,2.7,2.6,4.4c0.6,2,0.9,4,0.9,6.1
				c0.1,2.5-0.4,5-1.5,7.2c-0.8,1.7-2.1,3-3.8,3.8c-0.8,0.3-1.6,0.6-2.4,0.7v1.1c0.4-0.1,0.7-0.1,1.1-0.1c1.4-0.2,2.7-0.5,4-1.1
				c1.3-0.6,2.6-1.4,3.6-2.4c1.1-1.2,1.9-2.6,2.4-4.1c0.6-1.7,0.9-3.6,0.9-5.4c0.1-2.5-0.5-5-1.6-7.2c-1.1-2.1-2.9-3.8-5-5
				c-1.7-0.8-3.5-1.3-5.3-1.6L252.1,37.7 M240.6,36.6l-4.4,0.2v0.9h0.8c0.9-0.1,1.8,0.1,2.7,0.3c0.4,0.3,0.7,0.8,0.8,1.3
				c0.2,1.4,0.2,2.8,0.2,4.2v13c0,1.4,0,2.9-0.2,4.3c-0.1,0.6-0.4,1.1-0.9,1.4c-0.7,0.4-1.6,0.5-2.4,0.4h-1.1v0.9h11.9
				c1.6,0,3-0.1,4.1-0.1v-1.1c-1.1,0.2-2.3,0.3-3.4,0.2c-1.1,0.1-2.2-0.1-3.2-0.5c-0.5-0.4-0.9-0.9-0.9-1.6
				c-0.2-1.7-0.2-3.4-0.2-5.2V37.4c1-0.1,2.1-0.1,3-0.1c1.5,0,3.1,0.1,4.6,0.4v-1.2c-1.3-0.2-2.7-0.3-4-0.2
				C246.8,36.3,244.3,36.4,240.6,36.6"/>
			<path id="Path_662" d="M109,0.5C94.7,2.7,80.5,10.8,80.5,22.1c2.6,15.6,29.6,12.1,43.8,7.9c0-0.5,0.1-0.9,0.1-1.3
				c-0.5,0.1-1,0.3-1.5,0.5c-13,2.6-28.2,7-36.9-3.2c-7.4-12.5,8.4-21.8,24-24c22.1-2.1,47.7,0.7,60.5,15.6l1.9-0.2
				c-0.2-0.3-0.3-0.7-0.4-1c5.9-1.3,11.8-2.2,17.8-2.7c0-0.3,0.1-0.6,0.1-0.9c-3.2,0.1-3.2,0.1-5.4,0.3c-0.1,0-12.9,2.4-13.9,2
				C158.5,3.6,140.6,0,122.2,0C117.8,0,113.4,0.2,109,0.5"/>
			<path id="Path_663" d="M89.4,37.4h-0.2C89.2,37.4,89.6,37.5,89.4,37.4 M35.2,30.5v0.4l-0.1,0.4l0.1,0.3h9.3c2.1,0.1,4,0.1,6,0.1
				h4.9c4,0.1,9.2,0,12.9,0h10c0.7,0.5,1.4,1.1,2.2,1.6c0.8,0.6,1.6,1.1,2.4,1.6c0.9,0.5,1.8,1,2.7,1.5c1.2,0.6,2.4,0.9,3.7,1.1h0.1
				c0.2,0,0.4,0.1,0.9,0.1h1.6c0.3,0,0.1-0.1,0.1-0.2c0-0.2,0-0.3,0-0.5c0-0.1,0.1-0.3-0.1-0.3c-0.2-0.1-1.4-0.1-2-0.1
				c-0.6,0-1.2-0.2-1.7-0.4c-1-0.3-1.9-0.8-2.7-1.3c-0.8-0.5-1.6-1-2.3-1.5s-1.4-1-2.1-1.6c-0.6-0.5-1.2-1-1.7-1.6H35.1L35.2,30.5"
				/>
			<path id="Path_664" d="M111.3,36.6v0.9c0.9,0,1.9,0.1,2.7,0.4c0.6,0.2,1.2,0.6,1.5,1.2c0.3,0.8,0.4,1.6,0.4,2.5v16.1L100,36.6h-8
				v0.9c0.9-0.1,1.9,0,2.8,0.3c0.5,0.3,0.8,0.8,0.9,1.3c0.2,1.4,0.3,2.8,0.2,4.2v14.3c0,1,0,2.1-0.2,3.1c-0.1,0.5-0.5,0.9-1.2,1.2
				c-0.9,0.4-1.9,0.7-2.9,0.7v0.9h10v-0.9c-1.1,0.1-2.2-0.1-3.2-0.6c-0.6-0.3-1.1-0.7-1.3-1.3c-0.2-1-0.3-2.1-0.2-3.1V39l19,25.3
				h0.9V41.9c0-0.8,0.1-1.6,0.2-2.4c0.2-0.5,0.7-1,1.2-1.2c0.9-0.4,1.8-0.6,2.7-0.7v-0.9H111.3"/>
			<path id="Path_665" d="M172.9,17.4c-0.2,0-0.4-0.1-0.7-0.1l-1.8,0.3l-0.2,0.2c-14.3,4.2-28.6,8.4-42.9,12.6
				c-0.3,0.1-0.6,0.1-1,0.1v-1c14.3-4.1,28.4-8.4,42.8-12.5c-0.1-0.5-0.4-0.9-0.9-1c-14,3.5-27.8,8.3-41.4,12.1
				c1-4.4,6.9-8.1,13.2-6.6c4.6,2.8,5.8-1.3-0.5-2.2c-10.1,0.4-14.4,5.1-15.2,12c-3.2,1.6-10.9,2.9-14.7,3.8l-0.1,0.3
				c1.3,0,2.7,0,3.9,0.1c4.7,0.1,9.3,0.2,14-1.2c8.9-2.9,41.1-14,44.8-14c5.6,8.1,3.8,19.1-7.2,24.6c-13.1,5-36.1,2.1-38.6-10
				c-0.6,0.1-1.1,0.2-1.6,0.5c4,8.6,10.7,12.2,23.5,13.1h7.3c19.3-2.9,23.9-13.9,19.4-26.7c-1-1.5-1-1.5-1.1-2
				c7.7-2.1,15.6-3.2,23.6-3.3c12,1.5,14.2,10,2.7,14l-0.1,1.2l51.1-0.1v-1.6h-46.5l0.2-0.5c4.6-3.5,6.4-7.5,2-11.4
				c-3.6-2.5-8.5-3.4-13.7-3.4C186.1,14.6,178.4,16.2,172.9,17.4"/>
		</g>
		<g id="Group_449" transform="translate(35.062 18.23)">
			<path id="Path_666" d="M4,1.3c-0.7,0-1.4,0.3-1.9,0.9C1.6,2.8,1.4,3.6,1.5,4.4C1.4,5.3,1.6,6.1,2.1,6.7C2.6,7.3,3.3,7.6,4,7.5
				c0.3,0,0.7,0,1-0.1c0.3-0.1,0.7-0.2,1-0.2v1.2C5.4,8.6,4.6,8.7,3.8,8.7C2.8,8.8,1.7,8.4,1,7.6C0.3,6.7-0.1,5.5,0,4.4
				c0-0.8,0.2-1.6,0.5-2.3c0.3-0.6,0.8-1.2,1.4-1.5C2.5,0.2,3.3,0,4,0c0.8,0,1.6,0.2,2.4,0.5L6,1.8L5,1.5C4.7,1.3,4.4,1.3,4,1.3z"/>
			<path id="Path_667" d="M7.5,8.6V0.2h1.4v8.4H7.5z"/>
			<path id="Path_668" d="M13.5,8.6h-1.4V1.4H9.6V0.2h6.3v1.2h-2.5L13.5,8.6L13.5,8.6z"/>
			<path id="Path_669" d="M19.6,4.1l2-3.8h1.5l-2.8,5.2v3.3H19V5.5l-2.8-5.2h1.5L19.6,4.1z"/>
			<path id="Path_670" d="M34.7,4.4c0.1,1.1-0.3,2.3-1,3.2c-0.8,0.8-1.8,1.2-2.9,1.2c-1.1,0.1-2.2-0.3-2.9-1.2
				c-0.7-0.9-1.1-2.1-1-3.2c-0.1-1.2,0.3-2.3,1-3.2c0.8-0.8,1.8-1.2,2.9-1.1c1.1-0.1,2.2,0.4,2.9,1.2C34.4,2.1,34.8,3.3,34.7,4.4z
				 M28.3,4.4c-0.1,0.8,0.1,1.7,0.6,2.4c0.5,0.6,1.2,0.9,1.9,0.8c0.7,0.1,1.4-0.2,1.8-0.8c0.5-0.7,0.7-1.5,0.6-2.4
				c0.1-0.8-0.1-1.7-0.6-2.4c-0.4-0.5-1.1-0.8-1.8-0.8c-0.7-0.1-1.4,0.2-1.9,0.8C28.5,2.8,28.3,3.6,28.3,4.4z"/>
			<path id="Path_671" d="M37.4,8.6H36V0.2h4.7v1.2h-3.4V4h3.2v1.2h-3.2L37.4,8.6L37.4,8.6z"/>
		</g>
	</g>
</g>
</svg>
