<?xml version="1.0" encoding="utf-8"?>
<!-- Generator: Adobe Illustrator 23.0.0, SVG Export Plug-In . SVG Version: 6.00 Build 0)  -->
<svg version="1.1" id="Layer_1" xmlns="http://www.w3.org/2000/svg" xmlns:xlink="http://www.w3.org/1999/xlink" x="0px" y="0px"
	 width="24px" height="24px" viewBox="0 0 24 24" style="enable-background:new 0 0 24 24;" xml:space="preserve">
<style type="text/css">
	.st0{fill:#333333;}
	.st1{fill:#FFFFFF;}
	.st2{fill:url(#SVGID_1_);}
</style>
<path d="M-27.1-71.4c-5.1,0-9.2,4.1-9.2,9.2c0,2.1,0.7,4.1,2,5.7l-4.9,4.9c-0.4,0.4-0.4,1.1,0,1.5c0.2,0.2,0.5,0.3,0.8,0.3
	s0.6-0.1,0.8-0.3l4.9-4.9c1.6,1.2,3.5,2,5.7,2c5.1,0,9.2-4.1,9.2-9.2C-18-67.3-22.1-71.4-27.1-71.4z M-27.1-55.2
	c-1.9,0-3.7-0.8-5-2.1l0,0l0,0c-1.3-1.3-2.1-3-2.1-5c0-3.9,3.1-7,7-7s7,3.1,7,7S-23.3-55.2-27.1-55.2z"/>
<g>
	<path class="st0" d="M22.4-55.8l-8-13.3c-0.4-0.6-1-1.1-1.7-1.3c-0.7-0.2-1.5-0.1-2.1,0.3c-0.4,0.2-0.7,0.6-1,1l0,0l-8,13.4
		c-0.4,0.7-0.5,1.4-0.3,2.1C1.5-52.9,2-52.3,2.6-52C3-51.7,3.5-51.6,4-51.6h16c1.6,0,2.8-1.3,2.8-2.9C22.8-54.9,22.7-55.4,22.4-55.8
		z M20-53.5H4c-0.2,0-0.3,0-0.5-0.1s-0.4-0.3-0.4-0.6c-0.1-0.2,0-0.5,0.1-0.7l8-13.3c0.1-0.1,0.2-0.2,0.3-0.3
		c0.2-0.1,0.5-0.2,0.7-0.1s0.5,0.2,0.6,0.4l8,13.3c0.1,0.1,0.1,0.3,0.1,0.5C20.9-53.9,20.5-53.5,20-53.5z"/>
	<path class="st0" d="M12-64.8c-0.5,0-0.9,0.4-0.9,0.9v3.8c0,0.5,0.4,0.9,0.9,0.9s0.9-0.4,0.9-0.9v-3.8C12.9-64.4,12.5-64.8,12-64.8
		z"/>
	<path class="st0" d="M11.3-57c-0.2,0.2-0.3,0.4-0.3,0.7s0.1,0.5,0.3,0.7s0.4,0.3,0.7,0.3s0.5-0.1,0.7-0.3S13-56,13-56.3
		c0-0.2-0.1-0.5-0.3-0.7C12.3-57.3,11.7-57.3,11.3-57z"/>
</g>
<path class="st0" d="M61.4-69.4H45.6c-1.6,0-2.9,1.3-2.9,2.9v11.8c0,1.6,1.3,2.9,2.9,2.9h15.7c1.6,0,2.9-1.3,2.9-2.9v-11.8
	C64.3-68.1,63-69.4,61.4-69.4z M45.6-67.4h15.7c0.5,0,1,0.4,1,1v1.9l-8.8,6.2l-8.8-6.2v-1.9C44.7-67,45.1-67.4,45.6-67.4z
	 M61.4-53.7H45.6c-0.5,0-1-0.4-1-1v-7.4l8.3,5.8c0.2,0.1,0.4,0.2,0.6,0.2s0.4-0.1,0.6-0.2l8.3-5.8v7.4
	C62.3-54.1,61.9-53.7,61.4-53.7z"/>
<path class="st0" d="M102.1-49.8c-0.1,0-0.2,0-0.3,0c-3.2-0.3-6.3-1.4-8.9-3.2c-2.5-1.6-4.6-3.7-6.2-6.2c-1.7-2.7-2.8-5.8-3.2-9
	c-0.1-1.6,1.1-3.1,2.7-3.2c0.1,0,0.2,0,0.3,0h3l0,0c1.5,0,2.7,1.1,2.9,2.5c0.1,0.9,0.3,1.7,0.6,2.6c0.4,1.1,0.1,2.3-0.7,3.1
	l-0.7,0.7c1.2,1.8,2.7,3.4,4.5,4.5l0.7-0.7c0.8-0.8,2-1.1,3.1-0.7c0.8,0.3,1.7,0.5,2.5,0.6c1.5,0.2,2.6,1.5,2.6,3v2.9
	c0,0.8-0.3,1.5-0.9,2.1C103.6-50.1,102.9-49.8,102.1-49.8z M89.4-69.4L89.4-69.4h-3c-0.6,0.1-1,0.5-1,1.1c0.3,2.9,1.3,5.7,2.9,8.1
	c1.4,2.3,3.4,4.2,5.6,5.6c2.4,1.6,5.2,2.6,8.1,2.9c0.3,0,0.6-0.1,0.8-0.3c0.2-0.2,0.3-0.4,0.3-0.7v-3l0,0c0-0.5-0.4-0.9-0.8-1
	c-1-0.1-2-0.4-3-0.7c-0.4-0.1-0.8,0-1,0.2L97-56c-0.3,0.3-0.8,0.4-1.2,0.2c-2.6-1.5-4.8-3.7-6.3-6.3c-0.2-0.4-0.2-0.9,0.2-1.2
	l1.3-1.3c0.3-0.3,0.4-0.7,0.2-1c-0.4-1-0.6-2-0.7-3C90.3-69,89.9-69.4,89.4-69.4z"/>
<path class="st1" d="M135.1-66.4l4.5,11.4l-1.9,0.3l-1.1-3.1H132l-1.1,2.9H129l4.4-11.6L135.1-66.4L135.1-66.4z M134.2-63.8
	l-1.7,4.5h3.4L134.2-63.8z"/>
<path class="st1" d="M177-67.8l5.5,14.1l-2.3,0.3l-1.4-3.8h-5.6l-1.4,3.6h-2.3l5.5-14.3h2V-67.8z M175.9-64.6l-2.1,5.6h4.2
	L175.9-64.6z"/>
<path class="st1" d="M215.2-68.8l6.3,16.2l-2.7,0.4l-1.6-4.3h-6.4l-1.6,4.1h-2.7l6.2-16.3h2.5V-68.8z M213.9-65.2l-2.4,6.4h4.8
	L213.9-65.2z"/>
<linearGradient id="SVGID_1_" gradientUnits="userSpaceOnUse" x1="94.0378" y1="-9.0889" x2="94.8366" y2="30.052" gradientTransform="matrix(1 0 0 1 0 -28)">
	<stop  offset="0" style="stop-color:#404041"/>
	<stop  offset="1" style="stop-color:#231F20"/>
</linearGradient>
<path class="st2" d="M98.5-37.1c-2.9,0-5.3,2.4-5.3,5.5v0.1c0-0.1-0.1-0.2-0.1-0.2h-6.6c-1,0-1.9,0.8-1.9,1.9v12.5
	c0,1,0.8,1.9,1.9,1.9h6.7c1,0,1.9-0.8,1.9-1.9v-10.1c0.6,0.5,1.3,0.9,2.1,1.1c0,0.1,0,0.1,0,0.2s0,0.1,0,0.2s0,0.1,0,0.2
	c0,0,0,0.1-0.1,0.2c0,0.1,0,0.1-0.1,0.2v0.1v0.1c-0.1,0.1-0.1,0.2-0.2,0.3l-0.1,0.1l-0.1,0.1c-0.1,0.1-0.2,0.1-0.2,0.2
	c-0.1,0-0.1,0.1-0.2,0.1S96-24.2,96-24.2s0.1,0,0.2,0s0.1,0,0.2,0s0.2,0,0.3,0c0.1,0,0.1,0,0.2,0s0.1,0,0.2,0s0.3-0.1,0.4-0.2h0.1
	l0.1-0.1c0.1,0,0.1-0.1,0.2-0.1s0.1-0.1,0.2-0.1s0.1-0.1,0.2-0.2s0.1-0.1,0.2-0.2s0.1-0.1,0.2-0.2s0.2-0.3,0.3-0.4v-0.1
	c2.8-0.2,5-2.5,5-5.4C103.8-34.6,101.5-37.1,98.5-37.1z M96.2-34.6h4.8c0.1,0,0.2,0.1,0.2,0.2c0,0.1-0.1,0.2-0.2,0.2h-4.8
	c-0.1,0-0.2-0.1-0.2-0.2C95.9-34.5,96-34.6,96.2-34.6z M95-32.7h7.1c0.1,0,0.2,0.1,0.2,0.2c0,0.1-0.1,0.2-0.2,0.2H95
	c-0.1,0-0.2-0.1-0.2-0.2C94.8-32.6,94.9-32.7,95-32.7z M90.8-16.3h-1.9v-0.4h1.9V-16.3z M85.7-17.9v-12.5h7.7
	c0.1,0.6,0.4,1.2,0.7,1.7v10.8C94.1-17.9,85.7-17.9,85.7-17.9z M100.6-28.8h-4c-0.1,0-0.2-0.1-0.2-0.2s0.1-0.2,0.2-0.2h4
	c0.1,0,0.2,0.1,0.2,0.2C100.8-28.9,100.7-28.8,100.6-28.8z M102.1-30.6L102.1-30.6H95c-0.1,0-0.2-0.1-0.2-0.2S94.9-31,95-31h7.1
	c0.1,0,0.2,0.1,0.2,0.2C102.4-30.7,102.3-30.6,102.1-30.6z"/>
<g>
	<path d="M-22-24c0,0.5-0.4,0.9-0.9,0.9h-1.4v-12.6h-0.9v12.6H-27v0.9h4c1,0,1.8-0.8,1.8-1.8v-11.7H-22V-24z"/>
	<path d="M-29.4-26.9L-29.4-26.9c-1.2,0.6-1.6,2-1.9,2.8c-0.1,0.2-0.1,0.4-0.2,0.5c-0.1,0.3-0.2,0.5-0.3,0.6c0,0.1,0,0.1-0.1,0.2
		l0,0c-0.2,0-0.8-0.3-1.5-0.7v-1.8l0.9-1.1v1.4h0.9v-2.5v-5.7v-2.5h-0.9v3.4l-5.1,5c-0.7,0.8-1.2,2-1.2,3.3c0,1.7,0,4.8,0,6.7v1.8
		h5.9h0.1c0.3-0.1,2.9-1.2,3.4-2.5c0.3-0.7,0.8-2.5,1.3-4c0.3-1,0.5-1.8,0.7-2.2c0.5-1.3,0.4-2.2-0.1-2.7
		C-27.9-27.3-28.6-27.3-29.4-26.9z M-28.1-24.5c-0.1,0.4-0.4,1.3-0.7,2.2c-0.4,1.4-1,3.2-1.2,3.9c-0.3,0.7-1.8,1.6-2.8,2h-4.9v-0.9
		c0-2,0-5.1,0-6.7c0-1,0.3-2,0.9-2.6l4.5-4.4v3.3l-1.8,2.2v2.6l0.2,0.1c0.5,0.3,1.6,1,2.1,1c0.6,0,0.8-0.4,0.9-0.8
		c0.1-0.1,0.1-0.3,0.2-0.6c0.1-0.1,0.1-0.3,0.2-0.6c0.2-0.7,0.6-1.8,1.4-2.3c0.4-0.2,0.8-0.3,1-0.1C-27.8-26.1-27.8-25.5-28.1-24.5z
		"/>
	<polygon points="-34.6,-37.1 -34.6,-33.9 -32.8,-33.9 -32.8,-34.8 -33.7,-34.8 -33.7,-36.2 -19.7,-36.2 -19.7,-34.8 -20.6,-34.8 
		-20.6,-33.9 -18.8,-33.9 -18.8,-37.1 	"/>
</g>
<g>
	<path d="M22.8-31c0-0.2-0.2-0.3-0.3-0.3l-3-0.5c-0.2-0.4-0.5-0.8-0.8-1L13.8-36c-0.6-0.4-1.2-0.6-1.9-0.6c-0.2,0-0.5,0-0.7,0.1
		l-6,1.3c-0.3,0.1-0.6,0.3-0.7,0.6c0,0.1,0,0.1-0.1,0.2L4-34.5H3.9l-2.4,0.6C1.2-33.8,1-33.6,1-33.4c0,0.3,0.1,0.5,0.3,0.7l2,1.3
		c0,0,0.1,0,0.2,0.1l2.6,0.4L5.7-27c0,0.1,0,0.2,0.1,0.3l1.6,2.4c0.2,0.4,0.6,0.6,1.1,0.6c0.1,0,0.3,0,0.4-0.1
		c0.3-0.1,0.5-0.3,0.7-0.6c0.8,1.7,1.6,3.1,1.9,3.4v1H9.1c-0.2,0-0.4,0.2-0.4,0.4v2.9c0,0.2,0.2,0.4,0.4,0.4s0.4-0.2,0.4-0.4V-19H21
		v2.5c0,0.2,0.2,0.4,0.4,0.4s0.4-0.2,0.4-0.4v-2.9c0-0.2-0.2-0.4-0.4-0.4h-1.8v-8.7l2.4,0.4c0.1,0,0.3-0.1,0.4-0.2
		c0,0,0.4-0.7,0.5-1.3C23-30.3,22.8-31,22.8-31z M8.7-24.5L8.7-24.5c-0.2,0-0.3,0-0.4-0.2L6.7-27l0.4-3.7h0.1l0.5,0.1
		c0.2,0.6,0.4,1.3,0.5,2s0.3,1.4,0.6,2.2L9-24.9C8.9-24.6,8.7-24.5,8.7-24.5z M6.8-32.9c-0.1,0.3-0.1,0.5,0.1,0.8
		C7-32,7.1-31.8,7.3-31.5l-3.4-0.6l-1.6-1l1.8-0.4L6.8-32.9C6.8-33,6.8-33,6.8-32.9z M13.3-35.2l4.8,3.1l0.1,0.1L5.4-34.2l0.1-0.1
		l6-1.3c0.2,0,0.4-0.1,0.5-0.1C12.4-35.6,12.9-35.5,13.3-35.2z M13.9-28.3c-0.3-0.3-0.9-0.8-1.4-1.5l1.4,0.2V-28.3z M7.8-32.4
		c0.2,0,0.4,0,0.6,0c0.8,0,1.4,0.3,1.9,0.9c0.1,0.1,0.2,0.3,0.3,0.5c1.4,2.7,3.4,4,3.5,4s0.1,0.1,0.2,0.1c0.1,0,0.2,0,0.2-0.1
		c0.1-0.1,0.2-0.2,0.2-0.4v-2l4,0.7v8.9h-6.3v-1c0-0.1,0-0.2-0.1-0.4c0,0-2.7-4.3-3.3-7.5c-0.2-1.4-0.6-2.5-1.1-3.4
		C7.9-32.2,7.9-32.3,7.8-32.4z M11.7-30.7c-0.1-0.2-0.3-0.5-0.4-0.7c-0.2-0.4-0.4-0.7-0.6-1L22-30.5c0,0.2,0.1,0.5,0,0.7
		c0,0.2-0.2,0.5-0.3,0.7L11.7-30.7z"/>
	<circle cx="11" cy="-17.9" r="0.7"/>
</g>
<g>
	<g>
		<g>
			<path d="M47.3-20.1c-0.1,0-0.2,0-0.3-0.1c-0.2-0.1-0.2-0.3-0.2-0.5l0.8-2.8c0-0.1,0-0.2-0.1-0.2l-1.9-1.6
				c-0.2-0.1-0.2-0.3-0.1-0.5c0.1-0.2,0.2-0.3,0.4-0.3h2.3c0.1,0,0.2-0.1,0.2-0.1l1.2-2.8c0.1-0.2,0.2-0.3,0.4-0.3s0.4,0.1,0.4,0.3
				l1.2,2.8c0,0.1,0.1,0.1,0.2,0.1h2.3c0.2,0,0.4,0.1,0.4,0.3c0.1,0.2,0,0.4-0.1,0.5l-1.9,1.6c-0.1,0.1-0.1,0.2-0.1,0.2l0.8,2.8
				c0.1,0.2,0,0.4-0.2,0.5c-0.1,0.1-0.2,0.1-0.3,0.1s-0.2,0-0.3-0.1L50-21.8h-0.1h-0.1l-2.4,1.6C47.5-20.1,47.4-20.1,47.3-20.1z
				 M50.1-22.9c0.1,0,0.2,0,0.3,0.1l1.2,0.8h0.1h0.1c0.1-0.1,0.1-0.2,0.1-0.2l-0.4-1.4c-0.1-0.2,0-0.4,0.2-0.5l0.8-0.6
				c0.1-0.1,0.1-0.2,0.1-0.3c0-0.1-0.1-0.2-0.2-0.2h-0.8c-0.2,0-0.4-0.1-0.4-0.3l-0.7-1.7c0-0.1-0.1-0.1-0.2-0.1
				c-0.1,0-0.2,0.1-0.2,0.1l-0.7,1.7c-0.1,0.2-0.2,0.3-0.4,0.3h-0.8c-0.1,0-0.2,0.1-0.2,0.2s0,0.2,0.1,0.3l0.8,0.6
				c0.1,0.1,0.2,0.3,0.2,0.5l-0.4,1.4c0,0.1,0,0.2,0.1,0.2h0.1H49l1.2-0.8C49.9-22.8,50-22.9,50.1-22.9z"/>
		</g>
	</g>
	<g>
		<g>
			<path d="M44.4-16c-0.9,0-1.7-0.8-1.7-1.8v-17.3c0-0.8,0.8-1.5,1.7-1.5h18.3c0.9,0,1.7,0.7,1.7,1.5v10.4c0,0.3-0.2,0.5-0.5,0.5
				s-0.5-0.2-0.5-0.5v-6.2c0-0.1-0.1-0.2-0.2-0.2H43.9c-0.1,0-0.2,0.1-0.2,0.2v13.1c0,0.5,0.3,0.9,0.7,0.9h11.2
				c0.3,0,0.5,0.2,0.5,0.5s-0.2,0.5-0.5,0.5H44.4V-16z M44.4-35.7c-0.4,0-0.7,0.3-0.7,0.5l0,0v2.8c0,0.1,0.1,0.2,0.2,0.2h19.3
				c0.1,0,0.2-0.1,0.2-0.2v-2.8l0,0c0-0.2-0.3-0.5-0.7-0.5H44.4z"/>
		</g>
	</g>
	<g>
		<g>
			<rect x="45.5" y="-34.3" width="0.9" height="0.9"/>
		</g>
	</g>
	<g>
		<g>
			<rect x="48.2" y="-34.3" width="0.9" height="0.9"/>
		</g>
	</g>
	<g>
		<g>
			<rect x="51" y="-34.3" width="0.9" height="0.9"/>
		</g>
	</g>
	<g>
		<g>
			<path d="M62-16c-0.1,0-0.2,0-0.3-0.1l-2.4-2.4c0,0-0.1-0.1-0.2-0.1c-0.1,0-0.1,0-0.2,0.1L58-17.6c-0.1,0.1-0.2,0.1-0.3,0.1h-0.1
				c-0.2,0-0.3-0.2-0.3-0.3l-1.4-6.1c0-0.2,0-0.3,0.1-0.4s0.2-0.1,0.3-0.1h0.1l6.1,1.4c0.2,0,0.3,0.2,0.3,0.3c0,0.2,0,0.3-0.1,0.5
				l-0.9,0.9c-0.1,0.1-0.1,0.2,0,0.3l2.4,2.4c0.2,0.2,0.2,0.5,0,0.7L62.3-16C62.2-16,62.1-16,62-16z M59.1-19.8c0.1,0,0.2,0,0.3,0.1
				l2.4,2.4c0,0,0.1,0.1,0.2,0.1c0.1,0,0.1,0,0.2-0.1l0.9-0.9c0,0,0.1-0.1,0.1-0.2s0-0.1-0.1-0.2L60.7-21c-0.1-0.1-0.1-0.2-0.1-0.3
				c0-0.1,0-0.2,0.1-0.3l0.5-0.5c0.1-0.1,0.1-0.1,0.1-0.2s-0.1-0.1-0.2-0.2l-3.8-0.9c0,0,0,0-0.1,0s-0.1,0-0.2,0.1
				c0,0.1-0.1,0.2,0,0.3l0.9,3.8c0,0.1,0.1,0.1,0.2,0.2c0,0,0,0,0.1,0s0.1,0,0.2-0.1l0.5-0.5C58.8-19.8,58.9-19.8,59.1-19.8z"/>
		</g>
	</g>
</g>
<polygon points="22.8,2.2 21.8,1.2 12,11 2.2,1.2 1.2,2.2 11,12 1.2,21.8 2.2,22.8 12,13 21.8,22.8 22.8,21.8 13,12 "/>
</svg>
