<?xml version="1.0" encoding="utf-8"?>
<!-- Generator: Adobe Illustrator 23.0.0, SVG Export Plug-In . SVG Version: 6.00 Build 0)  -->
<svg version="1.1" id="Layer_1" xmlns="http://www.w3.org/2000/svg" xmlns:xlink="http://www.w3.org/1999/xlink" x="0px" y="0px"
	 width="47px" height="45px" viewBox="0 0 47 45" style="enable-background:new 0 0 47 45;" xml:space="preserve">
<style type="text/css">
	.st0{fill:#FFFFFF;}
</style>
<g>
	<g>
		<rect x="6.8" y="32.5" class="st0" width="17.1" height="1.5"/>
		<rect x="6.8" y="10.9" class="st0" width="17.1" height="1.5"/>
		<path class="st0" d="M17,36.4h-3.4c-0.4,0-0.8-0.3-0.8-0.8s0.3-0.8,0.8-0.8H17c0.4,0,0.8,0.3,0.8,0.8S17.4,36.4,17,36.4z"/>
		<path class="st0" d="M22.1,38.6H8.5c-1.4,0-2.5-1.1-2.5-2.5V8.8c0-1.4,1.1-2.5,2.5-2.5h13.7c1.4,0,2.5,1.1,2.5,2.5v27.3
			C24.6,37.5,23.5,38.6,22.1,38.6z M8.5,7.9c-0.5,0-1,0.4-1,0.9v27.3c0,0.5,0.4,0.9,0.9,0.9h13.7c0.5,0,0.9-0.4,0.9-0.9V8.8
			c0-0.5-0.4-0.9-0.9-0.9H8.5z"/>
	</g>
	<g>
		<path class="st0" d="M35.4,34.9c-0.2,0-0.4-0.1-0.5-0.2c-0.3-0.3-0.3-0.8,0-1.1c3-3,4.6-6.9,4.6-11.1s-1.6-8.2-4.6-11.1
			c-0.3-0.3-0.3-0.8,0-1.1s0.8-0.3,1.1,0c3.3,3.3,5.1,7.6,5.1,12.2s-1.8,8.9-5.1,12.2C35.8,34.9,35.6,34.9,35.4,34.9z"/>
		<path class="st0" d="M32.2,31.7c-0.2,0-0.4-0.1-0.5-0.2c-0.3-0.3-0.3-0.8,0-1.1c2.1-2.1,3.3-4.9,3.3-7.9s-1.2-5.8-3.3-7.9
			c-0.3-0.3-0.3-0.8,0-1.1s0.8-0.3,1.1,0c2.4,2.4,3.7,5.6,3.7,9s-1.3,6.6-3.7,9C32.6,31.6,32.4,31.7,32.2,31.7z"/>
		<path class="st0" d="M29,28.5c-0.2,0-0.4-0.1-0.5-0.2c-0.3-0.3-0.3-0.8,0-1.1c1.3-1.3,1.9-2.9,1.9-4.7s-0.7-3.4-1.9-4.7
			c-0.3-0.3-0.3-0.8,0-1.1s0.8-0.3,1.1,0c1.5,1.5,2.4,3.6,2.4,5.8s-0.8,4.2-2.4,5.8C29.4,28.4,29.2,28.5,29,28.5z"/>
	</g>
</g>
</svg>
