<?xml version="1.0" encoding="utf-8"?>
<!-- Generator: Adobe Illustrator 21.0.2, SVG Export Plug-In . SVG Version: 6.00 Build 0)  -->
<svg version="1.1" id="Layer_1" xmlns="http://www.w3.org/2000/svg" preserveAspectRatio="xMinYMin meet" xmlns:xlink="http://www.w3.org/1999/xlink" x="0px" y="0px"
	 width="18px" height="18px" viewBox="0 0 18 18" style="enable-background:new 0 0 18 18;" xml:space="preserve">
<path d="M9.9,9l7.9-7.9c0.3-0.3,0.3-0.7,0-0.9s-0.7-0.3-0.9,0L9,8.1L1.1,0.2c-0.3-0.3-0.7-0.3-0.9,0s-0.3,0.7,0,0.9L8.1,9l-7.9,7.9
	c-0.3,0.3-0.3,0.7,0,0.9C0.3,17.9,0.5,18,0.7,18s0.3-0.1,0.5-0.2L9,9.9l7.9,7.9c0.1,0.1,0.3,0.2,0.5,0.2s0.3-0.1,0.5-0.2
	c0.3-0.3,0.3-0.7,0-0.9L9.9,9z"/>
</svg>
