<svg xmlns="http://www.w3.org/2000/svg" viewBox="0 0 70.568 49.409">
  <defs>
    <style>
      .cls-1 {
        fill: #fff;
        opacity: 0.801;
      }
    </style>
  </defs>
  <g id="Group_837" data-name="Group 837" transform="translate(-1577 -2419)">
    <path id="Path_1529" data-name="Path 1529" class="cls-1" d="M69.115,7.731a8.842,8.842,0,0,0-6.22-6.22C57.373,0,35.284,0,35.284,0S13.2,0,7.673,1.453a9.023,9.023,0,0,0-6.22,6.278C0,13.253,0,24.7,0,24.7S0,36.214,1.453,41.678a8.842,8.842,0,0,0,6.22,6.22c5.58,1.511,27.611,1.511,27.611,1.511s22.089,0,27.611-1.453a8.842,8.842,0,0,0,6.22-6.22c1.453-5.522,1.453-16.974,1.453-16.974S70.626,13.253,69.115,7.731ZM28.25,35.284V14.125L46.619,24.7Z" transform="translate(1577 2419)"/>
  </g>
</svg>
