<?xml version="1.0" encoding="utf-8"?>
<!-- Generator: Adobe Illustrator 23.0.1, SVG Export Plug-In . SVG Version: 6.00 Build 0)  -->
<svg version="1.1" id="Capa_1" xmlns="http://www.w3.org/2000/svg" xmlns:xlink="http://www.w3.org/1999/xlink" x="0px" y="0px"
	 width="384px" height="384px" viewBox="0 0 384 384" style="enable-background:new 0 0 384 384;" xml:space="preserve">
<style type="text/css">
	.st0{fill:#FFFFFF;}
</style>
<g>
	<g>
		<path class="st0" d="M316.4,49.8H67.6C47.9,49.8,32,65.7,32,85.3v213.3c0,19.6,15.9,35.6,35.6,35.6h248.9
			c19.6,0,35.6-15.9,35.6-35.6V85.3C352,65.7,336.1,49.8,316.4,49.8z M174.2,160.1h-26.7v-8.9h-40.3v81.6h40.3v-8.9h26.7v22.5
			c0,9.8-7.9,17.8-17.8,17.8H93.7c-9.9,0-17.8-8-17.8-17.8V137.6c0-9.8,7.9-17.8,17.8-17.8h62.7c9.9,0,17.8,8,17.8,17.8v17.8
			L174.2,160.1z M308.1,160.1h-26.7v-8.9h-40.3v81.6h40.3v-8.9h26.7v22.5c0,9.8-7.9,17.8-17.8,17.8h-62.7c-9.9,0-17.8-8-17.8-17.8
			V137.6c0-9.8,7.9-17.8,17.8-17.8h62.7c9.9,0,17.8,8,17.8,17.8V160.1z"/>
	</g>
</g>
</svg>
