<?xml version="1.0" encoding="utf-8"?>
<!-- Generator: Adobe Illustrator 23.0.1, SVG Export Plug-In . SVG Version: 6.00 Build 0)  -->
<svg version="1.1" id="Layer_1" xmlns="http://www.w3.org/2000/svg" xmlns:xlink="http://www.w3.org/1999/xlink" x="0px" y="0px"
	 width="23.2px" height="23.2px" viewBox="0 0 23.2 23.2" style="enable-background:new 0 0 23.2 23.2;" xml:space="preserve">
<style type="text/css">
	.st0{fill:#FFFFFF;}
</style>
<path id="search_1_" class="st0" d="M6.5,14.5c-3-4.1-2-9.8,2.1-12.8C10.1,0.6,12,0,14,0c5.1,0,9.2,4.1,9.3,9.2
	c0,5.1-4.1,9.2-9.2,9.3c-1.9,0-3.8-0.6-5.4-1.7l-6.1,6.1c-0.6,0.6-1.6,0.6-2.2,0l0,0c-0.5-0.6-0.5-1.5,0-2.2L6.5,14.5L6.5,14.5z
	 M6.9,9.2c0,3.9,3.1,7.1,7,7.1s7.1-3.1,7.1-7c0-3.9-3.1-7.1-7-7.1c0,0,0,0,0,0C10.1,2.2,6.9,5.3,6.9,9.2C6.9,9.2,6.9,9.2,6.9,9.2z"
	/>
</svg>
