<?xml version="1.0" encoding="utf-8"?>
<!-- Generator: Adobe Illustrator 22.0.1, SVG Export Plug-In . SVG Version: 6.00 Build 0)  -->
<svg version="1.1" id="Capa_1" xmlns="http://www.w3.org/2000/svg" xmlns:xlink="http://www.w3.org/1999/xlink" x="0px" y="0px"
	 viewBox="0 0 512 512" style="enable-background:new 0 0 512 512;" xml:space="preserve">
<style type="text/css">
	.st0{fill:#FFFFFF;}
</style>
<g>
	<path class="st0" d="M472.2,232l-96.1,96.1c-53,53.1-139.1,53.1-192.2,0c-8.4-8.3-14.9-17.7-20.6-27.4L208,256
		c2.1-2.1,4.7-3.4,7.2-4.8c3.1,10.5,8.5,20.5,16.8,28.8c26.5,26.5,69.6,26.5,96.1,0l96.1-96.1c26.5-26.5,26.5-69.6,0-96.1
		c-26.5-26.5-69.6-26.5-96.1,0L293.9,122c-27.7-10.8-57.6-13.7-86.7-9.4L280,39.8c53.1-53.1,139.1-53.1,192.2,0
		C525.3,92.9,525.3,178.9,472.2,232z M218.1,390l-34.2,34.2c-26.5,26.5-69.6,26.5-96.1,0c-26.5-26.5-26.5-69.6,0-96.1l96.1-96.1
		c26.5-26.5,69.6-26.5,96.1,0c8.3,8.3,13.7,18.3,16.8,28.8c2.5-1.5,5.1-2.7,7.2-4.8l44.7-44.6c-5.7-9.7-12.3-19.1-20.6-27.4
		c-53-53.1-139.1-53.1-192.2,0L39.8,280c-53.1,53.1-53.1,139.1,0,192.2c53.1,53.1,139.1,53.1,192.2,0l72.8-72.8
		C275.7,403.7,245.8,400.7,218.1,390z"/>
</g>
</svg>
