<?xml version="1.0" encoding="utf-8"?>
<!-- Generator: Adobe Illustrator 21.1.0, SVG Export Plug-In . SVG Version: 6.00 Build 0)  -->
<svg version="1.1" id="Layer_1" xmlns="http://www.w3.org/2000/svg" xmlns:xlink="http://www.w3.org/1999/xlink" x="0px" y="0px"
	 width="64px" height="64px" viewBox="0 0 64 64" style="enable-background:new 0 0 64 64;" xml:space="preserve">
<style type="text/css">
	.st0{fill:#555555;}
</style>
<path class="st0" d="M32,3c16,0,29,13,29,29S48,61,32,61S3,48,3,32S16,3,32,3 M32,0C14.3,0,0,14.3,0,32s14.3,32,32,32s32-14.3,32-32
	S49.7,0,32,0L32,0z"/>
<path class="st0" d="M52.1,43.8l-0.8-0.3c-1.8-0.6-5.5-2-5.5-11.3c0-7.7-2-14-5.5-17.6c-1.6-1.6-3.5-2.6-5.6-3.1
	c-0.1-0.6-0.2-1.2-0.4-1.6C33.7,8.2,32.5,8,32,8c-1.4,0-2.5,1.4-2.8,3.6c-6.9,1.6-11.1,9.2-11.1,20.7c0,9.3-3.7,10.6-5.5,11.3
	l-0.8,0.3C11.3,44,11,44.6,11,45.2v1.9c0,0.9,0.7,1.6,1.6,1.6h13.7c0.8,1.7,2.7,2.9,5.1,2.9s4.3-1.2,5.1-2.9h15
	c0.9,0,1.6-0.7,1.6-1.6v-1.9C53,44.6,52.7,44,52.1,43.8z M15.6,45.6c2.4-1.4,5.7-4.6,5.7-13.4c0-11,4.1-17.9,10.8-17.9
	c2.4,0,4.5,0.9,6.1,2.5c3,3,4.6,8.4,4.6,15.4l0,0c0,8.8,3.2,12,5.7,13.4H15.6z"/>
</svg>
